{
	"asset":{
		"generator":"Khronos glTF Blender I/O v4.2.57",
		"version":"2.0"
	},
	"scene":0,
	"scenes":[
		{
			"name":"Scene",
			"nodes":[
				0
			]
		}
	],
	"nodes":[
		{
			"mesh":0,
			"name":"Mesh_0.012"
		}
	],
	"materials":[
		{
			"name":"Material_0.012",
			"normalTexture":{
				"index":0
			},
			"occlusionTexture":{
				"index":1
			},
			"pbrMetallicRoughness":{
				"baseColorTexture":{
					"index":2
				},
				"metallicFactor":0
			}
		}
	],
	"meshes":[
		{
			"name":"Mesh_0.012",
			"primitives":[
				{
					"attributes":{
						"POSITION":0,
						"NORMAL":1,
						"TEXCOORD_0":2
					},
					"indices":3,
					"material":0
				}
			]
		}
	],
	"textures":[
		{
			"sampler":0,
			"source":0
		},
		{
			"sampler":0,
			"source":1
		},
		{
			"sampler":0,
			"source":2
		}
	],
	"images":[
		{
			"mimeType":"image/jpeg",
			"name":"Image_0",
			"uri":"Image_0.jpg"
		},
		{
			"mimeType":"image/jpeg",
			"name":"Image_1",
			"uri":"Image_1.jpg"
		},
		{
			"mimeType":"image/jpeg",
			"name":"Image_2",
			"uri":"Image_2.jpg"
		}
	],
	"accessors":[
		{
			"bufferView":0,
			"componentType":5126,
			"count":21605,
			"max":[
				0.2828497290611267,
				0.3135312497615814,
				0.1703040897846222
			],
			"min":[
				-0.15100257098674774,
				0.09198164939880371,
				-0.24618954956531525
			],
			"type":"VEC3"
		},
		{
			"bufferView":1,
			"componentType":5126,
			"count":21605,
			"type":"VEC3"
		},
		{
			"bufferView":2,
			"componentType":5126,
			"count":21605,
			"type":"VEC2"
		},
		{
			"bufferView":3,
			"componentType":5123,
			"count":21609,
			"type":"SCALAR"
		}
	],
	"bufferViews":[
		{
			"buffer":0,
			"byteLength":259260,
			"byteOffset":0,
			"target":34962
		},
		{
			"buffer":0,
			"byteLength":259260,
			"byteOffset":259260,
			"target":34962
		},
		{
			"buffer":0,
			"byteLength":172840,
			"byteOffset":518520,
			"target":34962
		},
		{
			"buffer":0,
			"byteLength":43218,
			"byteOffset":691360,
			"target":34963
		}
	],
	"samplers":[
		{
			"magFilter":9729,
			"minFilter":9987
		}
	],
	"buffers":[
		{
			"byteLength":734580,
			"uri":"cakiBOTTOM.bin"
		}
	]
}
