{
	"asset":{
		"generator":"Khronos glTF Blender I/O v4.2.70",
		"version":"2.0"
	},
	"scene":0,
	"scenes":[
		{
			"name":"Scene",
			"nodes":[
				0
			]
		}
	],
	"nodes":[
		{
			"mesh":0,
			"name":"mesh.003"
		}
	],
	"materials":[
		{
			"doubleSided":true,
			"name":"main.001",
			"pbrMetallicRoughness":{
				"baseColorTexture":{
					"index":0
				},
				"metallicFactor":0
			}
		},
		{
			"doubleSided":true,
			"name":"main",
			"pbrMetallicRoughness":{
				"baseColorTexture":{
					"index":1
				},
				"metallicFactor":0
			}
		}
	],
	"meshes":[
		{
			"name":"mesh.003",
			"primitives":[
				{
					"attributes":{
						"POSITION":0,
						"NORMAL":1,
						"TEXCOORD_0":2
					},
					"indices":3,
					"material":0
				},
				{
					"attributes":{
						"POSITION":4,
						"NORMAL":5,
						"TEXCOORD_0":6
					},
					"indices":7,
					"material":1
				}
			]
		}
	],
	"textures":[
		{
			"sampler":0,
			"source":0
		},
		{
			"sampler":0,
			"source":1
		}
	],
	"images":[
		{
			"mimeType":"image/jpeg",
			"name":"texgen_0",
			"uri":"texgen_0.jpg"
		},
		{
			"mimeType":"image/jpeg",
			"name":"texgen_0-1",
			"uri":"texgen_0-1.jpg"
		}
	],
	"accessors":[
		{
			"bufferView":0,
			"componentType":5126,
			"count":3680,
			"max":[
				0.022471146658062935,
				1.0431991815567017,
				1.3687041997909546
			],
			"min":[
				-2.30590558052063,
				-0.2238926887512207,
				-0.8003882169723511
			],
			"type":"VEC3"
		},
		{
			"bufferView":1,
			"componentType":5126,
			"count":3680,
			"type":"VEC3"
		},
		{
			"bufferView":2,
			"componentType":5126,
			"count":3680,
			"type":"VEC2"
		},
		{
			"bufferView":3,
			"componentType":5123,
			"count":16059,
			"type":"SCALAR"
		},
		{
			"bufferView":4,
			"componentType":5126,
			"count":1301,
			"max":[
				0.015955395996570587,
				0.26717454195022583,
				1.3091588020324707
			],
			"min":[
				-2.343329429626465,
				-0.30045926570892334,
				-0.7798717021942139
			],
			"type":"VEC3"
		},
		{
			"bufferView":5,
			"componentType":5126,
			"count":1301,
			"type":"VEC3"
		},
		{
			"bufferView":6,
			"componentType":5126,
			"count":1301,
			"type":"VEC2"
		},
		{
			"bufferView":7,
			"componentType":5123,
			"count":4557,
			"type":"SCALAR"
		}
	],
	"bufferViews":[
		{
			"buffer":0,
			"byteLength":44160,
			"byteOffset":0,
			"target":34962
		},
		{
			"buffer":0,
			"byteLength":44160,
			"byteOffset":44160,
			"target":34962
		},
		{
			"buffer":0,
			"byteLength":29440,
			"byteOffset":88320,
			"target":34962
		},
		{
			"buffer":0,
			"byteLength":32118,
			"byteOffset":117760,
			"target":34963
		},
		{
			"buffer":0,
			"byteLength":15612,
			"byteOffset":149880,
			"target":34962
		},
		{
			"buffer":0,
			"byteLength":15612,
			"byteOffset":165492,
			"target":34962
		},
		{
			"buffer":0,
			"byteLength":10408,
			"byteOffset":181104,
			"target":34962
		},
		{
			"buffer":0,
			"byteLength":9114,
			"byteOffset":191512,
			"target":34963
		}
	],
	"samplers":[
		{
			"magFilter":9729,
			"minFilter":9987,
			"wrapS":33071,
			"wrapT":33071
		}
	],
	"buffers":[
		{
			"byteLength":200628,
			"uri":"mandarineTOP.bin"
		}
	]
}
