{
	"asset":{
		"generator":"Khronos glTF Blender I/O v4.2.57",
		"version":"2.0"
	},
	"scene":0,
	"scenes":[
		{
			"name":"Scene",
			"nodes":[
				0
			]
		}
	],
	"nodes":[
		{
			"mesh":0,
			"name":"mesh.003",
			"rotation":[
				0.7071068286895752,
				0,
				0,
				0.7071068286895752
			],
			"scale":[
				44.01509475708008,
				44.015098571777344,
				44.015098571777344
			]
		}
	],
	"materials":[
		{
			"doubleSided":true,
			"name":"main.001",
			"pbrMetallicRoughness":{
				"baseColorTexture":{
					"index":0
				},
				"metallicFactor":0
			}
		},
		{
			"doubleSided":true,
			"name":"main",
			"pbrMetallicRoughness":{
				"baseColorTexture":{
					"index":1
				},
				"metallicFactor":0
			}
		}
	],
	"meshes":[
		{
			"name":"mesh.003",
			"primitives":[
				{
					"attributes":{
						"POSITION":0,
						"NORMAL":1,
						"TEXCOORD_0":2
					},
					"indices":3,
					"material":0
				},
				{
					"attributes":{
						"POSITION":4,
						"NORMAL":5,
						"TEXCOORD_0":6
					},
					"indices":7,
					"material":1
				}
			]
		}
	],
	"textures":[
		{
			"sampler":0,
			"source":0
		},
		{
			"sampler":0,
			"source":1
		}
	],
	"images":[
		{
			"mimeType":"image/jpeg",
			"name":"texgen_0",
			"uri":"texgen_0.jpg"
		},
		{
			"mimeType":"image/jpeg",
			"name":"texgen_0",
			"uri":"texgen_0-1.jpg"
		}
	],
	"accessors":[
		{
			"bufferView":0,
			"componentType":5126,
			"count":3649,
			"max":[
				0.0016160107916221023,
				0.017934415489435196,
				0.00033733915188349783
			],
			"min":[
				-0.029928170144557953,
				-0.031228218227624893,
				-0.0520222969353199
			],
			"type":"VEC3"
		},
		{
			"bufferView":1,
			"componentType":5126,
			"count":3649,
			"type":"VEC3"
		},
		{
			"bufferView":2,
			"componentType":5126,
			"count":3649,
			"type":"VEC2"
		},
		{
			"bufferView":3,
			"componentType":5123,
			"count":16059,
			"type":"SCALAR"
		},
		{
			"bufferView":4,
			"componentType":5126,
			"count":1301,
			"max":[
				0.004168410785496235,
				0.017503129318356514,
				0.00047479066415689886
			],
			"min":[
				-0.010981615632772446,
				-0.029897768050432205,
				-0.052230771631002426
			],
			"type":"VEC3"
		},
		{
			"bufferView":5,
			"componentType":5126,
			"count":1301,
			"type":"VEC3"
		},
		{
			"bufferView":6,
			"componentType":5126,
			"count":1301,
			"type":"VEC2"
		},
		{
			"bufferView":7,
			"componentType":5123,
			"count":4557,
			"type":"SCALAR"
		}
	],
	"bufferViews":[
		{
			"buffer":0,
			"byteLength":43788,
			"byteOffset":0,
			"target":34962
		},
		{
			"buffer":0,
			"byteLength":43788,
			"byteOffset":43788,
			"target":34962
		},
		{
			"buffer":0,
			"byteLength":29192,
			"byteOffset":87576,
			"target":34962
		},
		{
			"buffer":0,
			"byteLength":32118,
			"byteOffset":116768,
			"target":34963
		},
		{
			"buffer":0,
			"byteLength":15612,
			"byteOffset":148888,
			"target":34962
		},
		{
			"buffer":0,
			"byteLength":15612,
			"byteOffset":164500,
			"target":34962
		},
		{
			"buffer":0,
			"byteLength":10408,
			"byteOffset":180112,
			"target":34962
		},
		{
			"buffer":0,
			"byteLength":9114,
			"byteOffset":190520,
			"target":34963
		}
	],
	"samplers":[
		{
			"magFilter":9729,
			"minFilter":9987,
			"wrapS":33071,
			"wrapT":33071
		}
	],
	"buffers":[
		{
			"byteLength":199636,
			"uri":"mandarineTOPgltf.bin"
		}
	]
}
