{
	"asset":{
		"generator":"Khronos glTF Blender I/O v4.2.57",
		"version":"2.0"
	},
	"scene":0,
	"scenes":[
		{
			"name":"Scene",
			"nodes":[
				0
			]
		}
	],
	"nodes":[
		{
			"mesh":0,
			"name":"Cylinder.015",
			"rotation":[
				0.5744099020957947,
				0.4123753011226654,
				-0.5744096636772156,
				0.41237545013427734
			],
			"scale":[
				0.018021101132035255,
				0.16314929723739624,
				0.017415447160601616
			]
		}
	],
	"materials":[
		{
			"doubleSided":true,
			"name":"Material.006",
			"pbrMetallicRoughness":{
				"baseColorFactor":[
					0,
					0,
					0,
					1
				],
				"metallicFactor":0,
				"roughnessFactor":0.5
			}
		},
		{
			"doubleSided":true,
			"name":"Material.005",
			"pbrMetallicRoughness":{
				"baseColorFactor":[
					0.07668785750865936,
					0.0928572416305542,
					0.0928572416305542,
					1
				],
				"metallicFactor":0,
				"roughnessFactor":0.5
			}
		},
		{
			"doubleSided":true,
			"name":"Material.002",
			"pbrMetallicRoughness":{
				"baseColorFactor":[
					0.3857142925262451,
					0.3857142925262451,
					0.3857142925262451,
					1
				],
				"metallicFactor":0,
				"roughnessFactor":0.5
			}
		}
	],
	"meshes":[
		{
			"name":"Cylinder.015",
			"primitives":[
				{
					"attributes":{
						"POSITION":0,
						"NORMAL":1,
						"TEXCOORD_0":2
					},
					"indices":3,
					"material":0
				},
				{
					"attributes":{
						"POSITION":4,
						"NORMAL":5,
						"TEXCOORD_0":6
					},
					"indices":7,
					"material":1
				},
				{
					"attributes":{
						"POSITION":8,
						"NORMAL":9,
						"TEXCOORD_0":10
					},
					"indices":11,
					"material":2
				}
			]
		}
	],
	"accessors":[
		{
			"bufferView":0,
			"componentType":5126,
			"count":12288,
			"max":[
				42.34331130981445,
				3.177123785018921,
				8.257904052734375
			],
			"min":[
				-43.454803466796875,
				-4.207181930541992,
				-13.977388381958008
			],
			"type":"VEC3"
		},
		{
			"bufferView":1,
			"componentType":5126,
			"count":12288,
			"type":"VEC3"
		},
		{
			"bufferView":2,
			"componentType":5126,
			"count":12288,
			"type":"VEC2"
		},
		{
			"bufferView":3,
			"componentType":5123,
			"count":43008,
			"type":"SCALAR"
		},
		{
			"bufferView":4,
			"componentType":5126,
			"count":2080,
			"max":[
				38.06423568725586,
				3.2982029914855957,
				2.7773613929748535
			],
			"min":[
				-36.92310333251953,
				-4.364459991455078,
				-4.068964958190918
			],
			"type":"VEC3"
		},
		{
			"bufferView":5,
			"componentType":5126,
			"count":2080,
			"type":"VEC3"
		},
		{
			"bufferView":6,
			"componentType":5126,
			"count":2080,
			"type":"VEC2"
		},
		{
			"bufferView":7,
			"componentType":5123,
			"count":5952,
			"type":"SCALAR"
		},
		{
			"bufferView":8,
			"componentType":5126,
			"count":144,
			"max":[
				46.60316467285156,
				5.919730186462402,
				96.357421875
			],
			"min":[
				-50.38038635253906,
				-4.953010559082031,
				-2.5011038780212402
			],
			"type":"VEC3"
		},
		{
			"bufferView":9,
			"componentType":5126,
			"count":144,
			"type":"VEC3"
		},
		{
			"bufferView":10,
			"componentType":5126,
			"count":144,
			"type":"VEC2"
		},
		{
			"bufferView":11,
			"componentType":5123,
			"count":228,
			"type":"SCALAR"
		}
	],
	"bufferViews":[
		{
			"buffer":0,
			"byteLength":147456,
			"byteOffset":0,
			"target":34962
		},
		{
			"buffer":0,
			"byteLength":147456,
			"byteOffset":147456,
			"target":34962
		},
		{
			"buffer":0,
			"byteLength":98304,
			"byteOffset":294912,
			"target":34962
		},
		{
			"buffer":0,
			"byteLength":86016,
			"byteOffset":393216,
			"target":34963
		},
		{
			"buffer":0,
			"byteLength":24960,
			"byteOffset":479232,
			"target":34962
		},
		{
			"buffer":0,
			"byteLength":24960,
			"byteOffset":504192,
			"target":34962
		},
		{
			"buffer":0,
			"byteLength":16640,
			"byteOffset":529152,
			"target":34962
		},
		{
			"buffer":0,
			"byteLength":11904,
			"byteOffset":545792,
			"target":34963
		},
		{
			"buffer":0,
			"byteLength":1728,
			"byteOffset":557696,
			"target":34962
		},
		{
			"buffer":0,
			"byteLength":1728,
			"byteOffset":559424,
			"target":34962
		},
		{
			"buffer":0,
			"byteLength":1152,
			"byteOffset":561152,
			"target":34962
		},
		{
			"buffer":0,
			"byteLength":456,
			"byteOffset":562304,
			"target":34963
		}
	],
	"buffers":[
		{
			"byteLength":562760,
			"uri":"pesiMore.bin"
		}
	]
}
