{
	"asset":{
		"generator":"Khronos glTF Blender I/O v4.2.70",
		"version":"2.0"
	},
	"scene":0,
	"scenes":[
		{
			"name":"Scene",
			"nodes":[
				0
			]
		}
	],
	"nodes":[
		{
			"mesh":0,
			"name":"Mesh_0.007",
			"rotation":[
				-0.7263943552970886,
				-0.6868959069252014,
				-0.0002974697563331574,
				0.022916438058018684
			],
			"scale":[
				1.027854561805725,
				1.0916454792022705,
				1.0552818775177002
			]
		}
	],
	"materials":[
		{
			"name":"Material_0.004",
			"normalTexture":{
				"index":0
			},
			"occlusionTexture":{
				"index":1
			},
			"pbrMetallicRoughness":{
				"baseColorTexture":{
					"index":2
				},
				"metallicFactor":0
			}
		},
		{
			"name":"Material_0.002",
			"normalTexture":{
				"index":3
			},
			"occlusionTexture":{
				"index":4
			},
			"pbrMetallicRoughness":{
				"baseColorTexture":{
					"index":5
				},
				"metallicFactor":0
			}
		}
	],
	"meshes":[
		{
			"name":"Mesh_0.034",
			"primitives":[
				{
					"attributes":{
						"POSITION":0,
						"NORMAL":1,
						"TEXCOORD_0":2
					},
					"indices":3,
					"material":0
				},
				{
					"attributes":{
						"POSITION":4,
						"NORMAL":5,
						"TEXCOORD_0":6
					},
					"indices":7,
					"material":1
				}
			]
		}
	],
	"textures":[
		{
			"sampler":0,
			"source":0
		},
		{
			"sampler":0,
			"source":1
		},
		{
			"sampler":0,
			"source":2
		},
		{
			"sampler":0,
			"source":3
		},
		{
			"sampler":0,
			"source":4
		},
		{
			"sampler":0,
			"source":5
		}
	],
	"images":[
		{
			"mimeType":"image/jpeg",
			"name":"Image_0",
			"uri":"Image_0.jpg"
		},
		{
			"mimeType":"image/jpeg",
			"name":"Image_1",
			"uri":"Image_1.jpg"
		},
		{
			"mimeType":"image/jpeg",
			"name":"Image_2",
			"uri":"Image_2.jpg"
		},
		{
			"mimeType":"image/jpeg",
			"name":"Image_0",
			"uri":"Image_0-1.jpg"
		},
		{
			"mimeType":"image/jpeg",
			"name":"Image_1",
			"uri":"Image_1-1.jpg"
		},
		{
			"mimeType":"image/jpeg",
			"name":"Image_2",
			"uri":"Image_2-1.jpg"
		}
	],
	"accessors":[
		{
			"bufferView":0,
			"componentType":5126,
			"count":912,
			"max":[
				0.1772574633359909,
				0.0038349393289536238,
				0.22790494561195374
			],
			"min":[
				-0.034504979848861694,
				-0.6362400054931641,
				-0.2477528601884842
			],
			"type":"VEC3"
		},
		{
			"bufferView":1,
			"componentType":5126,
			"count":912,
			"type":"VEC3"
		},
		{
			"bufferView":2,
			"componentType":5126,
			"count":912,
			"type":"VEC2"
		},
		{
			"bufferView":3,
			"componentType":5123,
			"count":3495,
			"type":"SCALAR"
		},
		{
			"bufferView":4,
			"componentType":5126,
			"count":1753,
			"max":[
				0.09554355591535568,
				0.011409681290388107,
				0.2335796058177948
			],
			"min":[
				-0.05644448846578598,
				-0.6260640621185303,
				-0.24621906876564026
			],
			"type":"VEC3"
		},
		{
			"bufferView":5,
			"componentType":5126,
			"count":1753,
			"type":"VEC3"
		},
		{
			"bufferView":6,
			"componentType":5126,
			"count":1753,
			"type":"VEC2"
		},
		{
			"bufferView":7,
			"componentType":5123,
			"count":6597,
			"type":"SCALAR"
		}
	],
	"bufferViews":[
		{
			"buffer":0,
			"byteLength":10944,
			"byteOffset":0,
			"target":34962
		},
		{
			"buffer":0,
			"byteLength":10944,
			"byteOffset":10944,
			"target":34962
		},
		{
			"buffer":0,
			"byteLength":7296,
			"byteOffset":21888,
			"target":34962
		},
		{
			"buffer":0,
			"byteLength":6990,
			"byteOffset":29184,
			"target":34963
		},
		{
			"buffer":0,
			"byteLength":21036,
			"byteOffset":36176,
			"target":34962
		},
		{
			"buffer":0,
			"byteLength":21036,
			"byteOffset":57212,
			"target":34962
		},
		{
			"buffer":0,
			"byteLength":14024,
			"byteOffset":78248,
			"target":34962
		},
		{
			"buffer":0,
			"byteLength":13194,
			"byteOffset":92272,
			"target":34963
		}
	],
	"samplers":[
		{
			"magFilter":9729,
			"minFilter":9987
		}
	],
	"buffers":[
		{
			"byteLength":105468,
			"uri":"mangoTOPgltf.bin"
		}
	]
}
