{
	"asset":{
		"generator":"Khronos glTF Blender I/O v4.2.57",
		"version":"2.0"
	},
	"scene":0,
	"scenes":[
		{
			"name":"Scene",
			"nodes":[
				0
			]
		}
	],
	"nodes":[
		{
			"mesh":0,
			"name":"Mesh_0.007"
		}
	],
	"materials":[
		{
			"name":"Material_0.004",
			"normalTexture":{
				"index":0
			},
			"occlusionTexture":{
				"index":1
			},
			"pbrMetallicRoughness":{
				"baseColorTexture":{
					"index":2
				},
				"metallicFactor":0
			}
		},
		{
			"name":"Material_0.002",
			"normalTexture":{
				"index":3
			},
			"occlusionTexture":{
				"index":4
			},
			"pbrMetallicRoughness":{
				"baseColorTexture":{
					"index":5
				},
				"metallicFactor":0
			}
		}
	],
	"meshes":[
		{
			"name":"Mesh_0.034",
			"primitives":[
				{
					"attributes":{
						"POSITION":0,
						"NORMAL":1,
						"TEXCOORD_0":2
					},
					"indices":3,
					"material":0
				},
				{
					"attributes":{
						"POSITION":4,
						"NORMAL":5,
						"TEXCOORD_0":6
					},
					"indices":7,
					"material":1
				}
			]
		}
	],
	"textures":[
		{
			"sampler":0,
			"source":0
		},
		{
			"sampler":0,
			"source":1
		},
		{
			"sampler":0,
			"source":2
		},
		{
			"sampler":0,
			"source":3
		},
		{
			"sampler":0,
			"source":4
		},
		{
			"sampler":0,
			"source":5
		}
	],
	"images":[
		{
			"mimeType":"image/jpeg",
			"name":"Image_0",
			"uri":"Image_0.jpg"
		},
		{
			"mimeType":"image/jpeg",
			"name":"Image_1",
			"uri":"Image_1.jpg"
		},
		{
			"mimeType":"image/jpeg",
			"name":"Image_2",
			"uri":"Image_2.jpg"
		},
		{
			"mimeType":"image/jpeg",
			"name":"Image_0",
			"uri":"Image_0-1.jpg"
		},
		{
			"mimeType":"image/jpeg",
			"name":"Image_1",
			"uri":"Image_1-1.jpg"
		},
		{
			"mimeType":"image/jpeg",
			"name":"Image_2",
			"uri":"Image_2-1.jpg"
		}
	],
	"accessors":[
		{
			"bufferView":0,
			"componentType":5126,
			"count":21898,
			"max":[
				0.1673475205898285,
				0.5913931131362915,
				0.4021066725254059
			],
			"min":[
				-0.021558579057455063,
				-0.04935149848461151,
				-0.07564946264028549
			],
			"type":"VEC3"
		},
		{
			"bufferView":1,
			"componentType":5126,
			"count":21898,
			"type":"VEC3"
		},
		{
			"bufferView":2,
			"componentType":5126,
			"count":21898,
			"type":"VEC2"
		},
		{
			"bufferView":3,
			"componentType":5123,
			"count":21912,
			"type":"SCALAR"
		},
		{
			"bufferView":4,
			"componentType":5126,
			"count":5555,
			"max":[
				0.08895754814147949,
				0.5983177423477173,
				0.4048350751399994
			],
			"min":[
				-0.06210057809948921,
				-0.046736981719732285,
				-0.07405342906713486
			],
			"type":"VEC3"
		},
		{
			"bufferView":5,
			"componentType":5126,
			"count":5555,
			"type":"VEC3"
		},
		{
			"bufferView":6,
			"componentType":5126,
			"count":5555,
			"type":"VEC2"
		},
		{
			"bufferView":7,
			"componentType":5123,
			"count":29052,
			"type":"SCALAR"
		}
	],
	"bufferViews":[
		{
			"buffer":0,
			"byteLength":262776,
			"byteOffset":0,
			"target":34962
		},
		{
			"buffer":0,
			"byteLength":262776,
			"byteOffset":262776,
			"target":34962
		},
		{
			"buffer":0,
			"byteLength":175184,
			"byteOffset":525552,
			"target":34962
		},
		{
			"buffer":0,
			"byteLength":43824,
			"byteOffset":700736,
			"target":34963
		},
		{
			"buffer":0,
			"byteLength":66660,
			"byteOffset":744560,
			"target":34962
		},
		{
			"buffer":0,
			"byteLength":66660,
			"byteOffset":811220,
			"target":34962
		},
		{
			"buffer":0,
			"byteLength":44440,
			"byteOffset":877880,
			"target":34962
		},
		{
			"buffer":0,
			"byteLength":58104,
			"byteOffset":922320,
			"target":34963
		}
	],
	"samplers":[
		{
			"magFilter":9729,
			"minFilter":9987
		}
	],
	"buffers":[
		{
			"byteLength":980424,
			"uri":"mangoTOPgltf.bin"
		}
	]
}
