{
	"asset":{
		"generator":"Khronos glTF Blender I/O v4.2.70",
		"version":"2.0"
	},
	"scene":0,
	"scenes":[
		{
			"name":"Scene",
			"nodes":[
				0,
				1,
				2,
				3
			]
		}
	],
	"nodes":[
		{
			"mesh":0,
			"name":"CastIronHandleInner"
		},
		{
			"mesh":1,
			"name":"CastIronHandle",
			"translation":[
				0,
				0.17007945477962494,
				-0.07389091700315475
			]
		},
		{
			"mesh":2,
			"name":"CastIronCover"
		},
		{
			"mesh":3,
			"name":"CastironBody"
		}
	],
	"materials":[
		{
			"doubleSided":true,
			"name":"FlatironMaterial",
			"normalTexture":{
				"index":0,
				"scale":0
			},
			"pbrMetallicRoughness":{
				"baseColorTexture":{
					"index":1
				},
				"metallicRoughnessTexture":{
					"index":2
				}
			}
		}
	],
	"meshes":[
		{
			"name":"CastIronHandleInner.001",
			"primitives":[
				{
					"attributes":{
						"POSITION":0,
						"NORMAL":1,
						"TEXCOORD_0":2,
						"COLOR_0":3,
						"COLOR_1":4
					},
					"indices":5,
					"material":0
				}
			]
		},
		{
			"name":"CastIronHandle.002",
			"primitives":[
				{
					"attributes":{
						"POSITION":6,
						"NORMAL":7,
						"TEXCOORD_0":8,
						"COLOR_0":9,
						"COLOR_1":10
					},
					"indices":11,
					"material":0
				}
			]
		},
		{
			"name":"CastIronCover.001",
			"primitives":[
				{
					"attributes":{
						"POSITION":12,
						"NORMAL":13,
						"TEXCOORD_0":14,
						"COLOR_0":15,
						"COLOR_1":16
					},
					"indices":17,
					"material":0
				}
			]
		},
		{
			"name":"CastironBody.002",
			"primitives":[
				{
					"attributes":{
						"POSITION":18,
						"NORMAL":19,
						"TEXCOORD_0":20,
						"COLOR_0":21,
						"COLOR_1":22
					},
					"indices":23,
					"material":0
				}
			]
		}
	],
	"textures":[
		{
			"sampler":0,
			"source":0
		},
		{
			"sampler":0,
			"source":1
		},
		{
			"sampler":0,
			"source":2
		}
	],
	"images":[
		{
			"mimeType":"image/png",
			"name":"Castiron_CastIron_Iron_Mat_Normal",
			"uri":"Castiron_CastIron_Iron_Mat_Normal.png"
		},
		{
			"mimeType":"image/png",
			"name":"Castiron_CastIron_Iron_Mat_BaseColor",
			"uri":"Castiron_CastIron_Iron_Mat_BaseColor.png"
		},
		{
			"mimeType":"image/png",
			"name":"Castiron_CastIron_Iron_Mat_Metallic-Castiron_CastIron_Iron_Mat_Roughness",
			"uri":"Castiron_CastIron_Iron_Mat_Metallic-Castiron_CastIron_Iron_Mat_Roughness.png"
		}
	],
	"accessors":[
		{
			"bufferView":0,
			"componentType":5126,
			"count":268,
			"max":[
				0.009788190945982933,
				0.17418667674064636,
				0.05463390424847603
			],
			"min":[
				-0.009788259863853455,
				0.10268877446651459,
				-0.09167347103357315
			],
			"type":"VEC3"
		},
		{
			"bufferView":1,
			"componentType":5126,
			"count":268,
			"type":"VEC3"
		},
		{
			"bufferView":2,
			"componentType":5126,
			"count":268,
			"type":"VEC2"
		},
		{
			"bufferView":3,
			"componentType":5121,
			"count":268,
			"normalized":true,
			"type":"VEC4"
		},
		{
			"bufferView":4,
			"componentType":5126,
			"count":268,
			"type":"VEC3"
		},
		{
			"bufferView":5,
			"componentType":5123,
			"count":591,
			"type":"SCALAR"
		},
		{
			"bufferView":6,
			"componentType":5126,
			"count":364,
			"max":[
				0.01885819621384144,
				0.019254831597208977,
				0.12026333808898926
			],
			"min":[
				-0.019410226494073868,
				-0.019271669909358025,
				-0.009411306120455265
			],
			"type":"VEC3"
		},
		{
			"bufferView":7,
			"componentType":5126,
			"count":364,
			"type":"VEC3"
		},
		{
			"bufferView":8,
			"componentType":5126,
			"count":364,
			"type":"VEC2"
		},
		{
			"bufferView":9,
			"componentType":5121,
			"count":364,
			"normalized":true,
			"type":"VEC4"
		},
		{
			"bufferView":10,
			"componentType":5126,
			"count":364,
			"type":"VEC3"
		},
		{
			"bufferView":11,
			"componentType":5123,
			"count":1794,
			"type":"SCALAR"
		},
		{
			"bufferView":12,
			"componentType":5126,
			"count":1337,
			"max":[
				0.05052364245057106,
				0.15896210074424744,
				0.09958744049072266
			],
			"min":[
				-0.05052366852760315,
				0.09590663015842438,
				-0.13599584996700287
			],
			"type":"VEC3"
		},
		{
			"bufferView":13,
			"componentType":5126,
			"count":1337,
			"type":"VEC3"
		},
		{
			"bufferView":14,
			"componentType":5126,
			"count":1337,
			"type":"VEC2"
		},
		{
			"bufferView":15,
			"componentType":5121,
			"count":1337,
			"normalized":true,
			"type":"VEC4"
		},
		{
			"bufferView":16,
			"componentType":5126,
			"count":1337,
			"type":"VEC3"
		},
		{
			"bufferView":17,
			"componentType":5123,
			"count":4983,
			"type":"SCALAR"
		},
		{
			"bufferView":18,
			"componentType":5126,
			"count":1424,
			"max":[
				0.05052364617586136,
				0.1073552742600441,
				0.09986364096403122
			],
			"min":[
				-0.05052366852760315,
				0.0005424428381957114,
				-0.12727029621601105
			],
			"type":"VEC3"
		},
		{
			"bufferView":19,
			"componentType":5126,
			"count":1424,
			"type":"VEC3"
		},
		{
			"bufferView":20,
			"componentType":5126,
			"count":1424,
			"type":"VEC2"
		},
		{
			"bufferView":21,
			"componentType":5121,
			"count":1424,
			"normalized":true,
			"type":"VEC4"
		},
		{
			"bufferView":22,
			"componentType":5126,
			"count":1424,
			"type":"VEC3"
		},
		{
			"bufferView":23,
			"componentType":5123,
			"count":5310,
			"type":"SCALAR"
		}
	],
	"bufferViews":[
		{
			"buffer":0,
			"byteLength":3216,
			"byteOffset":0,
			"target":34962
		},
		{
			"buffer":0,
			"byteLength":3216,
			"byteOffset":3216,
			"target":34962
		},
		{
			"buffer":0,
			"byteLength":2144,
			"byteOffset":6432,
			"target":34962
		},
		{
			"buffer":0,
			"byteLength":1072,
			"byteOffset":8576,
			"target":34962
		},
		{
			"buffer":0,
			"byteLength":3216,
			"byteOffset":9648,
			"target":34962
		},
		{
			"buffer":0,
			"byteLength":1182,
			"byteOffset":12864,
			"target":34963
		},
		{
			"buffer":0,
			"byteLength":4368,
			"byteOffset":14048,
			"target":34962
		},
		{
			"buffer":0,
			"byteLength":4368,
			"byteOffset":18416,
			"target":34962
		},
		{
			"buffer":0,
			"byteLength":2912,
			"byteOffset":22784,
			"target":34962
		},
		{
			"buffer":0,
			"byteLength":1456,
			"byteOffset":25696,
			"target":34962
		},
		{
			"buffer":0,
			"byteLength":4368,
			"byteOffset":27152,
			"target":34962
		},
		{
			"buffer":0,
			"byteLength":3588,
			"byteOffset":31520,
			"target":34963
		},
		{
			"buffer":0,
			"byteLength":16044,
			"byteOffset":35108,
			"target":34962
		},
		{
			"buffer":0,
			"byteLength":16044,
			"byteOffset":51152,
			"target":34962
		},
		{
			"buffer":0,
			"byteLength":10696,
			"byteOffset":67196,
			"target":34962
		},
		{
			"buffer":0,
			"byteLength":5348,
			"byteOffset":77892,
			"target":34962
		},
		{
			"buffer":0,
			"byteLength":16044,
			"byteOffset":83240,
			"target":34962
		},
		{
			"buffer":0,
			"byteLength":9966,
			"byteOffset":99284,
			"target":34963
		},
		{
			"buffer":0,
			"byteLength":17088,
			"byteOffset":109252,
			"target":34962
		},
		{
			"buffer":0,
			"byteLength":17088,
			"byteOffset":126340,
			"target":34962
		},
		{
			"buffer":0,
			"byteLength":11392,
			"byteOffset":143428,
			"target":34962
		},
		{
			"buffer":0,
			"byteLength":5696,
			"byteOffset":154820,
			"target":34962
		},
		{
			"buffer":0,
			"byteLength":17088,
			"byteOffset":160516,
			"target":34962
		},
		{
			"buffer":0,
			"byteLength":10620,
			"byteOffset":177604,
			"target":34963
		}
	],
	"samplers":[
		{
			"magFilter":9729,
			"minFilter":9987
		}
	],
	"buffers":[
		{
			"byteLength":188224,
			"uri":"weight.bin"
		}
	]
}
