{
	"asset":{
		"generator":"Khronos glTF Blender I/O v4.2.70",
		"version":"2.0"
	},
	"extensionsUsed":[
		"KHR_materials_emissive_strength"
	],
	"scene":0,
	"scenes":[
		{
			"name":"Scene",
			"nodes":[
				0,
				1
			]
		}
	],
	"nodes":[
		{
			"mesh":0,
			"name":"mesh.015"
		},
		{
			"mesh":1,
			"name":"Cube",
			"scale":[
				0.5327198505401611,
				0.5327198505401611,
				0.5327198505401611
			],
			"translation":[
				-0.03502249717712402,
				1.8005882501602173,
				0.022586487233638763
			]
		}
	],
	"materials":[
		{
			"doubleSided":true,
			"name":"main",
			"pbrMetallicRoughness":{
				"baseColorTexture":{
					"index":0
				},
				"metallicFactor":0
			}
		},
		{
			"doubleSided":true,
			"name":"main.001",
			"pbrMetallicRoughness":{
				"baseColorTexture":{
					"index":1
				},
				"metallicFactor":0
			}
		},
		{
			"doubleSided":true,
			"emissiveFactor":[
				1,
				0,
				0.028311452163673433
			],
			"extensions":{
				"KHR_materials_emissive_strength":{
					"emissiveStrength":3.691256254086966
				}
			},
			"name":"Material.001",
			"pbrMetallicRoughness":{
				"baseColorFactor":[
					0.800000011920929,
					0.800000011920929,
					0.800000011920929,
					1
				],
				"metallicFactor":0,
				"roughnessFactor":0.5
			}
		}
	],
	"meshes":[
		{
			"name":"mesh.016",
			"primitives":[
				{
					"attributes":{
						"POSITION":0,
						"NORMAL":1,
						"TEXCOORD_0":2
					},
					"indices":3,
					"material":0
				},
				{
					"attributes":{
						"POSITION":4,
						"NORMAL":5,
						"TEXCOORD_0":6
					},
					"indices":7,
					"material":1
				}
			]
		},
		{
			"name":"Cube.001",
			"primitives":[
				{
					"attributes":{
						"POSITION":8,
						"NORMAL":9,
						"TEXCOORD_0":10
					},
					"indices":11,
					"material":2
				}
			]
		}
	],
	"textures":[
		{
			"sampler":0,
			"source":0
		},
		{
			"sampler":0,
			"source":1
		}
	],
	"images":[
		{
			"mimeType":"image/jpeg",
			"name":"orange1TEXjpeg",
			"uri":"orange1TEXjpeg.jpg"
		},
		{
			"mimeType":"image/jpeg",
			"name":"texgen_0",
			"uri":"texgen_0.jpg"
		}
	],
	"accessors":[
		{
			"bufferView":0,
			"componentType":5126,
			"count":11822,
			"max":[
				1.1723777055740356,
				1.1877535581588745,
				1.1939518451690674
			],
			"min":[
				-1.2371230125427246,
				0.750334620475769,
				-0.9775958061218262
			],
			"type":"VEC3"
		},
		{
			"bufferView":1,
			"componentType":5126,
			"count":11822,
			"type":"VEC3"
		},
		{
			"bufferView":2,
			"componentType":5126,
			"count":11822,
			"type":"VEC2"
		},
		{
			"bufferView":3,
			"componentType":5123,
			"count":67533,
			"type":"SCALAR"
		},
		{
			"bufferView":4,
			"componentType":5126,
			"count":8782,
			"max":[
				1.229300618171692,
				1.1257596015930176,
				1.196470022201538
			],
			"min":[
				-1.2512998580932617,
				-0.03854670748114586,
				-0.9967861175537109
			],
			"type":"VEC3"
		},
		{
			"bufferView":5,
			"componentType":5126,
			"count":8782,
			"type":"VEC3"
		},
		{
			"bufferView":6,
			"componentType":5126,
			"count":8782,
			"type":"VEC2"
		},
		{
			"bufferView":7,
			"componentType":5123,
			"count":48651,
			"type":"SCALAR"
		},
		{
			"bufferView":8,
			"componentType":5126,
			"count":24,
			"max":[
				1,
				1,
				1
			],
			"min":[
				-1,
				-1,
				-1
			],
			"type":"VEC3"
		},
		{
			"bufferView":9,
			"componentType":5126,
			"count":24,
			"type":"VEC3"
		},
		{
			"bufferView":10,
			"componentType":5126,
			"count":24,
			"type":"VEC2"
		},
		{
			"bufferView":11,
			"componentType":5123,
			"count":36,
			"type":"SCALAR"
		}
	],
	"bufferViews":[
		{
			"buffer":0,
			"byteLength":141864,
			"byteOffset":0,
			"target":34962
		},
		{
			"buffer":0,
			"byteLength":141864,
			"byteOffset":141864,
			"target":34962
		},
		{
			"buffer":0,
			"byteLength":94576,
			"byteOffset":283728,
			"target":34962
		},
		{
			"buffer":0,
			"byteLength":135066,
			"byteOffset":378304,
			"target":34963
		},
		{
			"buffer":0,
			"byteLength":105384,
			"byteOffset":513372,
			"target":34962
		},
		{
			"buffer":0,
			"byteLength":105384,
			"byteOffset":618756,
			"target":34962
		},
		{
			"buffer":0,
			"byteLength":70256,
			"byteOffset":724140,
			"target":34962
		},
		{
			"buffer":0,
			"byteLength":97302,
			"byteOffset":794396,
			"target":34963
		},
		{
			"buffer":0,
			"byteLength":288,
			"byteOffset":891700,
			"target":34962
		},
		{
			"buffer":0,
			"byteLength":288,
			"byteOffset":891988,
			"target":34962
		},
		{
			"buffer":0,
			"byteLength":192,
			"byteOffset":892276,
			"target":34962
		},
		{
			"buffer":0,
			"byteLength":72,
			"byteOffset":892468,
			"target":34963
		}
	],
	"samplers":[
		{
			"magFilter":9729,
			"minFilter":9987,
			"wrapS":33071,
			"wrapT":33071
		}
	],
	"buffers":[
		{
			"byteLength":892540,
			"uri":"orange_BOTTOM.bin"
		}
	]
}
