{
	"asset":{
		"generator":"Khronos glTF Blender I/O v4.2.57",
		"version":"2.0"
	},
	"scene":0,
	"scenes":[
		{
			"name":"Scene",
			"nodes":[
				0
			]
		}
	],
	"nodes":[
		{
			"mesh":0,
			"name":"arancia1"
		}
	],
	"materials":[
		{
			"doubleSided":true,
			"name":"main",
			"pbrMetallicRoughness":{
				"baseColorTexture":{
					"index":0
				},
				"metallicFactor":0,
				"roughnessFactor":0.5527864098548889
			}
		}
	],
	"meshes":[
		{
			"name":"Mesh",
			"primitives":[
				{
					"attributes":{
						"POSITION":0,
						"NORMAL":1,
						"TEXCOORD_0":2
					},
					"indices":3,
					"material":0
				}
			]
		}
	],
	"textures":[
		{
			"sampler":0,
			"source":0
		}
	],
	"images":[
		{
			"mimeType":"image/jpeg",
			"name":"texture",
			"uri":"texture.jpg"
		}
	],
	"accessors":[
		{
			"bufferView":0,
			"componentType":5126,
			"count":5262,
			"max":[
				0.04268131032586098,
				0.05228147655725479,
				0.05703013390302658
			],
			"min":[
				-0.04352133348584175,
				-0.0007083974778652191,
				-0.02713397517800331
			],
			"type":"VEC3"
		},
		{
			"bufferView":1,
			"componentType":5126,
			"count":5262,
			"type":"VEC3"
		},
		{
			"bufferView":2,
			"componentType":5126,
			"count":5262,
			"type":"VEC2"
		},
		{
			"bufferView":3,
			"componentType":5123,
			"count":19743,
			"type":"SCALAR"
		}
	],
	"bufferViews":[
		{
			"buffer":0,
			"byteLength":63144,
			"byteOffset":0,
			"target":34962
		},
		{
			"buffer":0,
			"byteLength":63144,
			"byteOffset":63144,
			"target":34962
		},
		{
			"buffer":0,
			"byteLength":42096,
			"byteOffset":126288,
			"target":34962
		},
		{
			"buffer":0,
			"byteLength":39486,
			"byteOffset":168384,
			"target":34963
		}
	],
	"samplers":[
		{
			"magFilter":9729,
			"minFilter":9987
		}
	],
	"buffers":[
		{
			"byteLength":207872,
			"uri":"orange_BOTTOM.bin"
		}
	]
}
