{
	"asset":{
		"generator":"Khronos glTF Blender I/O v4.2.57",
		"version":"2.0"
	},
	"scene":0,
	"scenes":[
		{
			"name":"Scene",
			"nodes":[
				0
			]
		}
	],
	"nodes":[
		{
			"mesh":0,
			"name":"mesh.015",
			"rotation":[
				-0.5000000596046448,
				-0.5,
				-0.5,
				0.4999999403953552
			],
			"scale":[
				27.56532096862793,
				26.91482162475586,
				27.547330856323242
			],
			"translation":[
				-1.4733668565750122,
				0,
				0
			]
		}
	],
	"materials":[
		{
			"doubleSided":true,
			"name":"main",
			"pbrMetallicRoughness":{
				"baseColorTexture":{
					"index":0
				},
				"metallicFactor":0
			}
		},
		{
			"doubleSided":true,
			"name":"main.001",
			"pbrMetallicRoughness":{
				"baseColorTexture":{
					"index":1
				},
				"metallicFactor":0
			}
		}
	],
	"meshes":[
		{
			"name":"mesh.016",
			"primitives":[
				{
					"attributes":{
						"POSITION":0,
						"NORMAL":1,
						"TEXCOORD_0":2
					},
					"indices":3,
					"material":0
				},
				{
					"attributes":{
						"POSITION":4,
						"NORMAL":5,
						"TEXCOORD_0":6
					},
					"indices":7,
					"material":1
				}
			]
		}
	],
	"textures":[
		{
			"sampler":0,
			"source":0
		},
		{
			"sampler":0,
			"source":1
		}
	],
	"images":[
		{
			"mimeType":"image/jpeg",
			"name":"orange1TEXjpeg",
			"uri":"orange1TEXjpeg.jpg"
		},
		{
			"mimeType":"image/jpeg",
			"name":"texgen_0",
			"uri":"texgen_0.jpg"
		}
	],
	"accessors":[
		{
			"bufferView":0,
			"componentType":5126,
			"count":12214,
			"max":[
				0.036929912865161896,
				-0.0035921335220336914,
				0.012612715363502502
			],
			"min":[
				-0.039047449827194214,
				-0.0927615612745285,
				-0.0028974306769669056
			],
			"type":"VEC3"
		},
		{
			"bufferView":1,
			"componentType":5126,
			"count":12214,
			"type":"VEC3"
		},
		{
			"bufferView":2,
			"componentType":5126,
			"count":12214,
			"type":"VEC2"
		},
		{
			"bufferView":3,
			"componentType":5123,
			"count":69471,
			"type":"SCALAR"
		},
		{
			"bufferView":4,
			"componentType":5126,
			"count":8784,
			"max":[
				0.03773040324449539,
				0.003370257094502449,
				0.010865994729101658
			],
			"min":[
				-0.041835371404886246,
				-0.09350796043872833,
				-0.0313996747136116
			],
			"type":"VEC3"
		},
		{
			"bufferView":5,
			"componentType":5126,
			"count":8784,
			"type":"VEC3"
		},
		{
			"bufferView":6,
			"componentType":5126,
			"count":8784,
			"type":"VEC2"
		},
		{
			"bufferView":7,
			"componentType":5123,
			"count":48651,
			"type":"SCALAR"
		}
	],
	"bufferViews":[
		{
			"buffer":0,
			"byteLength":146568,
			"byteOffset":0,
			"target":34962
		},
		{
			"buffer":0,
			"byteLength":146568,
			"byteOffset":146568,
			"target":34962
		},
		{
			"buffer":0,
			"byteLength":97712,
			"byteOffset":293136,
			"target":34962
		},
		{
			"buffer":0,
			"byteLength":138942,
			"byteOffset":390848,
			"target":34963
		},
		{
			"buffer":0,
			"byteLength":105408,
			"byteOffset":529792,
			"target":34962
		},
		{
			"buffer":0,
			"byteLength":105408,
			"byteOffset":635200,
			"target":34962
		},
		{
			"buffer":0,
			"byteLength":70272,
			"byteOffset":740608,
			"target":34962
		},
		{
			"buffer":0,
			"byteLength":97302,
			"byteOffset":810880,
			"target":34963
		}
	],
	"samplers":[
		{
			"magFilter":9729,
			"minFilter":9987,
			"wrapS":33071,
			"wrapT":33071
		}
	],
	"buffers":[
		{
			"byteLength":908184,
			"uri":"orange_BOTTOM.bin"
		}
	]
}
