{
	"asset":{
		"generator":"Khronos glTF Blender I/O v4.2.70",
		"version":"2.0"
	},
	"scene":0,
	"scenes":[
		{
			"name":"Scene",
			"nodes":[
				0
			]
		}
	],
	"nodes":[
		{
			"mesh":0,
			"name":"Mesh_0.004",
			"rotation":[
				-0.6784002184867859,
				-0.08983498811721802,
				-0.7260881066322327,
				0.06707403063774109
			],
			"scale":[
				1.2019327878952026,
				1.201932668685913,
				1.2019327878952026
			]
		}
	],
	"materials":[
		{
			"name":"Material_0.004",
			"normalTexture":{
				"index":0
			},
			"occlusionTexture":{
				"index":1
			},
			"pbrMetallicRoughness":{
				"baseColorTexture":{
					"index":2
				},
				"metallicFactor":0
			}
		},
		{
			"name":"Material_0.016",
			"normalTexture":{
				"index":3
			},
			"occlusionTexture":{
				"index":4
			},
			"pbrMetallicRoughness":{
				"baseColorTexture":{
					"index":5
				},
				"metallicFactor":0
			}
		}
	],
	"meshes":[
		{
			"name":"Mesh_0.004",
			"primitives":[
				{
					"attributes":{
						"POSITION":0,
						"NORMAL":1,
						"TEXCOORD_0":2
					},
					"indices":3,
					"material":0
				},
				{
					"attributes":{
						"POSITION":4,
						"NORMAL":5,
						"TEXCOORD_0":6
					},
					"indices":7,
					"material":1
				}
			]
		}
	],
	"textures":[
		{
			"sampler":0,
			"source":0
		},
		{
			"sampler":0,
			"source":1
		},
		{
			"sampler":0,
			"source":2
		},
		{
			"sampler":0,
			"source":3
		},
		{
			"sampler":0,
			"source":4
		},
		{
			"sampler":0,
			"source":5
		}
	],
	"images":[
		{
			"mimeType":"image/jpeg",
			"name":"Image_0",
			"uri":"Image_0.jpg"
		},
		{
			"mimeType":"image/jpeg",
			"name":"Image_1",
			"uri":"Image_1.jpg"
		},
		{
			"mimeType":"image/jpeg",
			"name":"Image_2",
			"uri":"Image_2.jpg"
		},
		{
			"mimeType":"image/jpeg",
			"name":"Image_0",
			"uri":"Image_0-1.jpg"
		},
		{
			"mimeType":"image/jpeg",
			"name":"Image_1",
			"uri":"Image_1-1.jpg"
		},
		{
			"mimeType":"image/jpeg",
			"name":"Image_2",
			"uri":"Image_2-1.jpg"
		}
	],
	"accessors":[
		{
			"bufferView":0,
			"componentType":5126,
			"count":5182,
			"max":[
				0.35380735993385315,
				-0.003829214023426175,
				0.16663819551467896
			],
			"min":[
				-0.3117184638977051,
				-0.23359942436218262,
				-0.18432928621768951
			],
			"type":"VEC3"
		},
		{
			"bufferView":1,
			"componentType":5126,
			"count":5182,
			"type":"VEC3"
		},
		{
			"bufferView":2,
			"componentType":5126,
			"count":5182,
			"type":"VEC2"
		},
		{
			"bufferView":3,
			"componentType":5123,
			"count":5184,
			"type":"SCALAR"
		},
		{
			"bufferView":4,
			"componentType":5126,
			"count":11223,
			"max":[
				0.35295814275741577,
				-0.12531450390815735,
				0.16944609582424164
			],
			"min":[
				-0.31905558705329895,
				-0.24369218945503235,
				-0.18244343996047974
			],
			"type":"VEC3"
		},
		{
			"bufferView":5,
			"componentType":5126,
			"count":11223,
			"type":"VEC3"
		},
		{
			"bufferView":6,
			"componentType":5126,
			"count":11223,
			"type":"VEC2"
		},
		{
			"bufferView":7,
			"componentType":5123,
			"count":11223,
			"type":"SCALAR"
		}
	],
	"bufferViews":[
		{
			"buffer":0,
			"byteLength":62184,
			"byteOffset":0,
			"target":34962
		},
		{
			"buffer":0,
			"byteLength":62184,
			"byteOffset":62184,
			"target":34962
		},
		{
			"buffer":0,
			"byteLength":41456,
			"byteOffset":124368,
			"target":34962
		},
		{
			"buffer":0,
			"byteLength":10368,
			"byteOffset":165824,
			"target":34963
		},
		{
			"buffer":0,
			"byteLength":134676,
			"byteOffset":176192,
			"target":34962
		},
		{
			"buffer":0,
			"byteLength":134676,
			"byteOffset":310868,
			"target":34962
		},
		{
			"buffer":0,
			"byteLength":89784,
			"byteOffset":445544,
			"target":34962
		},
		{
			"buffer":0,
			"byteLength":22446,
			"byteOffset":535328,
			"target":34963
		}
	],
	"samplers":[
		{
			"magFilter":9729,
			"minFilter":9987
		}
	],
	"buffers":[
		{
			"byteLength":557776,
			"uri":"papaya_bottom.bin"
		}
	]
}
