{
	"asset":{
		"generator":"Khronos glTF Blender I/O v4.2.57",
		"version":"2.0"
	},
	"scene":0,
	"scenes":[
		{
			"name":"Scene",
			"nodes":[
				0
			]
		}
	],
	"nodes":[
		{
			"mesh":0,
			"name":"Mesh_0.014"
		}
	],
	"materials":[
		{
			"name":"Material_0.010",
			"normalTexture":{
				"index":0
			},
			"occlusionTexture":{
				"index":1
			},
			"pbrMetallicRoughness":{
				"baseColorTexture":{
					"index":2
				},
				"metallicFactor":0
			}
		}
	],
	"meshes":[
		{
			"name":"Mesh_0.035",
			"primitives":[
				{
					"attributes":{
						"POSITION":0,
						"NORMAL":1,
						"TEXCOORD_0":2
					},
					"indices":3,
					"material":0
				}
			]
		}
	],
	"textures":[
		{
			"sampler":0,
			"source":0
		},
		{
			"sampler":0,
			"source":1
		},
		{
			"sampler":0,
			"source":2
		}
	],
	"images":[
		{
			"mimeType":"image/jpeg",
			"name":"Image_0",
			"uri":"Image_0.jpg"
		},
		{
			"mimeType":"image/jpeg",
			"name":"Image_1",
			"uri":"Image_1.jpg"
		},
		{
			"mimeType":"image/jpeg",
			"name":"Image_2",
			"uri":"Image_2.jpg"
		}
	],
	"accessors":[
		{
			"bufferView":0,
			"componentType":5126,
			"count":6024,
			"max":[
				0.33405396342277527,
				0.2737275958061218,
				0.29669052362442017
			],
			"min":[
				-0.37260472774505615,
				0.09212051331996918,
				-0.21748308837413788
			],
			"type":"VEC3"
		},
		{
			"bufferView":1,
			"componentType":5126,
			"count":6024,
			"type":"VEC3"
		},
		{
			"bufferView":2,
			"componentType":5126,
			"count":6024,
			"type":"VEC2"
		},
		{
			"bufferView":3,
			"componentType":5123,
			"count":31668,
			"type":"SCALAR"
		}
	],
	"bufferViews":[
		{
			"buffer":0,
			"byteLength":72288,
			"byteOffset":0,
			"target":34962
		},
		{
			"buffer":0,
			"byteLength":72288,
			"byteOffset":72288,
			"target":34962
		},
		{
			"buffer":0,
			"byteLength":48192,
			"byteOffset":144576,
			"target":34962
		},
		{
			"buffer":0,
			"byteLength":63336,
			"byteOffset":192768,
			"target":34963
		}
	],
	"samplers":[
		{
			"magFilter":9729,
			"minFilter":9987
		}
	],
	"buffers":[
		{
			"byteLength":256104,
			"uri":"mangoBOTTOM.bin"
		}
	]
}
