{
	"asset":{
		"generator":"Khronos glTF Blender I/O v4.2.70",
		"version":"2.0"
	},
	"scene":0,
	"scenes":[
		{
			"name":"Scene",
			"nodes":[
				0
			]
		}
	],
	"nodes":[
		{
			"mesh":0,
			"name":"Mesh_0.014"
		}
	],
	"materials":[
		{
			"name":"Material_0.010",
			"normalTexture":{
				"index":0
			},
			"occlusionTexture":{
				"index":1
			},
			"pbrMetallicRoughness":{
				"baseColorTexture":{
					"index":2
				},
				"metallicFactor":0
			}
		}
	],
	"meshes":[
		{
			"name":"Mesh_0.035",
			"primitives":[
				{
					"attributes":{
						"POSITION":0,
						"NORMAL":1,
						"TEXCOORD_0":2
					},
					"indices":3,
					"material":0
				}
			]
		}
	],
	"textures":[
		{
			"sampler":0,
			"source":0
		},
		{
			"sampler":0,
			"source":1
		},
		{
			"sampler":0,
			"source":2
		}
	],
	"images":[
		{
			"mimeType":"image/jpeg",
			"name":"Image_0",
			"uri":"Image_0.jpg"
		},
		{
			"mimeType":"image/jpeg",
			"name":"Image_1",
			"uri":"Image_1.jpg"
		},
		{
			"mimeType":"image/jpeg",
			"name":"Image_2",
			"uri":"Image_2.jpg"
		}
	],
	"accessors":[
		{
			"bufferView":0,
			"componentType":5126,
			"count":3102,
			"max":[
				0.40114468336105347,
				0.17708945274353027,
				0.1908646821975708
			],
			"min":[
				-0.3054620325565338,
				-0.004488177597522736,
				-0.3237532377243042
			],
			"type":"VEC3"
		},
		{
			"bufferView":1,
			"componentType":5126,
			"count":3102,
			"type":"VEC3"
		},
		{
			"bufferView":2,
			"componentType":5126,
			"count":3102,
			"type":"VEC2"
		},
		{
			"bufferView":3,
			"componentType":5123,
			"count":14223,
			"type":"SCALAR"
		}
	],
	"bufferViews":[
		{
			"buffer":0,
			"byteLength":37224,
			"byteOffset":0,
			"target":34962
		},
		{
			"buffer":0,
			"byteLength":37224,
			"byteOffset":37224,
			"target":34962
		},
		{
			"buffer":0,
			"byteLength":24816,
			"byteOffset":74448,
			"target":34962
		},
		{
			"buffer":0,
			"byteLength":28446,
			"byteOffset":99264,
			"target":34963
		}
	],
	"samplers":[
		{
			"magFilter":9729,
			"minFilter":9987
		}
	],
	"buffers":[
		{
			"byteLength":127712,
			"uri":"mangoBOTTOM.bin"
		}
	]
}
