{
	"asset":{
		"generator":"Khronos glTF Blender I/O v4.2.57",
		"version":"2.0"
	},
	"scene":0,
	"scenes":[
		{
			"name":"Scene",
			"nodes":[
				0
			]
		}
	],
	"nodes":[
		{
			"mesh":0,
			"name":"Cylinder.022",
			"rotation":[
				0.7071068286895752,
				0,
				0,
				0.7071068286895752
			],
			"scale":[
				0.03485613688826561,
				0.23222939670085907,
				0.033214494585990906
			]
		}
	],
	"materials":[
		{
			"doubleSided":true,
			"name":"Material.006",
			"pbrMetallicRoughness":{
				"baseColorFactor":[
					0,
					0,
					0,
					1
				],
				"metallicFactor":0,
				"roughnessFactor":0.5
			}
		},
		{
			"doubleSided":true,
			"name":"Material.005",
			"pbrMetallicRoughness":{
				"baseColorFactor":[
					0.07668785750865936,
					0.0928572416305542,
					0.0928572416305542,
					1
				],
				"metallicFactor":0,
				"roughnessFactor":0.5
			}
		},
		{
			"doubleSided":true,
			"name":"Material.007",
			"pbrMetallicRoughness":{
				"baseColorFactor":[
					0.800000011920929,
					0.800000011920929,
					0.800000011920929,
					1
				],
				"metallicFactor":0,
				"roughnessFactor":0.4000000059604645
			}
		}
	],
	"meshes":[
		{
			"name":"Cylinder.022",
			"primitives":[
				{
					"attributes":{
						"POSITION":0,
						"NORMAL":1,
						"TEXCOORD_0":2
					},
					"indices":3,
					"material":0
				},
				{
					"attributes":{
						"POSITION":4,
						"NORMAL":5,
						"TEXCOORD_0":6
					},
					"indices":7,
					"material":1
				},
				{
					"attributes":{
						"POSITION":8,
						"NORMAL":9,
						"TEXCOORD_0":10
					},
					"indices":11,
					"material":2
				}
			]
		}
	],
	"accessors":[
		{
			"bufferView":0,
			"componentType":5126,
			"count":3576,
			"max":[
				11.609782218933105,
				1.0128358602523804,
				24.71778678894043
			],
			"min":[
				-11.394253730773926,
				-1.06406569480896,
				-25.31138801574707
			],
			"type":"VEC3"
		},
		{
			"bufferView":1,
			"componentType":5126,
			"count":3576,
			"type":"VEC3"
		},
		{
			"bufferView":2,
			"componentType":5126,
			"count":3576,
			"type":"VEC2"
		},
		{
			"bufferView":3,
			"componentType":5123,
			"count":10476,
			"type":"SCALAR"
		},
		{
			"bufferView":4,
			"componentType":5126,
			"count":390,
			"max":[
				1,
				1.1523630619049072,
				17.29404067993164
			],
			"min":[
				-1,
				-1.1523611545562744,
				-18.609086990356445
			],
			"type":"VEC3"
		},
		{
			"bufferView":5,
			"componentType":5126,
			"count":390,
			"type":"VEC3"
		},
		{
			"bufferView":6,
			"componentType":5126,
			"count":390,
			"type":"VEC2"
		},
		{
			"bufferView":7,
			"componentType":5123,
			"count":1116,
			"type":"SCALAR"
		},
		{
			"bufferView":8,
			"componentType":5126,
			"count":96,
			"max":[
				11.609782218933105,
				1.4788196086883545,
				24.71644401550293
			],
			"min":[
				-11.394254684448242,
				-1.571918249130249,
				22.523290634155273
			],
			"type":"VEC3"
		},
		{
			"bufferView":9,
			"componentType":5126,
			"count":96,
			"type":"VEC3"
		},
		{
			"bufferView":10,
			"componentType":5126,
			"count":96,
			"type":"VEC2"
		},
		{
			"bufferView":11,
			"componentType":5123,
			"count":144,
			"type":"SCALAR"
		}
	],
	"bufferViews":[
		{
			"buffer":0,
			"byteLength":42912,
			"byteOffset":0,
			"target":34962
		},
		{
			"buffer":0,
			"byteLength":42912,
			"byteOffset":42912,
			"target":34962
		},
		{
			"buffer":0,
			"byteLength":28608,
			"byteOffset":85824,
			"target":34962
		},
		{
			"buffer":0,
			"byteLength":20952,
			"byteOffset":114432,
			"target":34963
		},
		{
			"buffer":0,
			"byteLength":4680,
			"byteOffset":135384,
			"target":34962
		},
		{
			"buffer":0,
			"byteLength":4680,
			"byteOffset":140064,
			"target":34962
		},
		{
			"buffer":0,
			"byteLength":3120,
			"byteOffset":144744,
			"target":34962
		},
		{
			"buffer":0,
			"byteLength":2232,
			"byteOffset":147864,
			"target":34963
		},
		{
			"buffer":0,
			"byteLength":1152,
			"byteOffset":150096,
			"target":34962
		},
		{
			"buffer":0,
			"byteLength":1152,
			"byteOffset":151248,
			"target":34962
		},
		{
			"buffer":0,
			"byteLength":768,
			"byteOffset":152400,
			"target":34962
		},
		{
			"buffer":0,
			"byteLength":288,
			"byteOffset":153168,
			"target":34963
		}
	],
	"buffers":[
		{
			"byteLength":153456,
			"uri":"pesi.bin"
		}
	]
}
