{
	"asset":{
		"generator":"Khronos glTF Blender I/O v4.2.70",
		"version":"2.0"
	},
	"extensionsUsed":[
		"KHR_materials_emissive_strength"
	],
	"scene":0,
	"scenes":[
		{
			"name":"Scene",
			"nodes":[
				0
			]
		}
	],
	"nodes":[
		{
			"mesh":0,
			"name":"Cylinder.022",
			"rotation":[
				0.70710688829422,
				0,
				0,
				0.7071066498756409
			],
			"scale":[
				0.03485613688826561,
				0.23222942650318146,
				0.033214498311281204
			]
		}
	],
	"materials":[
		{
			"doubleSided":true,
			"name":"Material.006",
			"pbrMetallicRoughness":{
				"baseColorFactor":[
					0.023895010352134705,
					0.019423453137278557,
					0.017463544383645058,
					1
				],
				"metallicFactor":0,
				"roughnessFactor":0.5
			}
		},
		{
			"doubleSided":true,
			"emissiveFactor":[
				1,
				0.2774271018273222,
				0.004229277391284534
			],
			"extensions":{
				"KHR_materials_emissive_strength":{
					"emissiveStrength":3.9564698934555054
				}
			},
			"name":"Material.007",
			"pbrMetallicRoughness":{
				"baseColorFactor":[
					0.7912938594818115,
					0.21952639520168304,
					0.0033466017339378595,
					1
				],
				"metallicFactor":0,
				"roughnessFactor":0.4000000059604645
			}
		}
	],
	"meshes":[
		{
			"name":"Cylinder.022",
			"primitives":[
				{
					"attributes":{
						"POSITION":0,
						"NORMAL":1,
						"TEXCOORD_0":2
					},
					"indices":3,
					"material":0
				},
				{
					"attributes":{
						"POSITION":4,
						"NORMAL":5,
						"TEXCOORD_0":6
					},
					"indices":7,
					"material":1
				},
				{
					"attributes":{
						"POSITION":8,
						"NORMAL":9,
						"TEXCOORD_0":10
					},
					"indices":11,
					"material":1
				}
			]
		}
	],
	"accessors":[
		{
			"bufferView":0,
			"componentType":5126,
			"count":3576,
			"max":[
				11.467843055725098,
				1.0579824447631836,
				0.0054264068603515625
			],
			"min":[
				-11.536192893981934,
				-1.0189191102981567,
				-50.02375030517578
			],
			"type":"VEC3"
		},
		{
			"bufferView":1,
			"componentType":5126,
			"count":3576,
			"type":"VEC3"
		},
		{
			"bufferView":2,
			"componentType":5126,
			"count":3576,
			"type":"VEC2"
		},
		{
			"bufferView":3,
			"componentType":5123,
			"count":10476,
			"type":"SCALAR"
		},
		{
			"bufferView":4,
			"componentType":5126,
			"count":390,
			"max":[
				0.8580610156059265,
				1.1975096464157104,
				-7.4183197021484375
			],
			"min":[
				-1.1419389247894287,
				-1.1072145700454712,
				-43.321449279785156
			],
			"type":"VEC3"
		},
		{
			"bufferView":5,
			"componentType":5126,
			"count":390,
			"type":"VEC3"
		},
		{
			"bufferView":6,
			"componentType":5126,
			"count":390,
			"type":"VEC2"
		},
		{
			"bufferView":7,
			"componentType":5123,
			"count":1116,
			"type":"SCALAR"
		},
		{
			"bufferView":8,
			"componentType":5126,
			"count":96,
			"max":[
				11.467843055725098,
				1.5239661931991577,
				0.0040836334228515625
			],
			"min":[
				-11.53619384765625,
				-1.5267716646194458,
				-2.1890697479248047
			],
			"type":"VEC3"
		},
		{
			"bufferView":9,
			"componentType":5126,
			"count":96,
			"type":"VEC3"
		},
		{
			"bufferView":10,
			"componentType":5126,
			"count":96,
			"type":"VEC2"
		},
		{
			"bufferView":11,
			"componentType":5123,
			"count":144,
			"type":"SCALAR"
		}
	],
	"bufferViews":[
		{
			"buffer":0,
			"byteLength":42912,
			"byteOffset":0,
			"target":34962
		},
		{
			"buffer":0,
			"byteLength":42912,
			"byteOffset":42912,
			"target":34962
		},
		{
			"buffer":0,
			"byteLength":28608,
			"byteOffset":85824,
			"target":34962
		},
		{
			"buffer":0,
			"byteLength":20952,
			"byteOffset":114432,
			"target":34963
		},
		{
			"buffer":0,
			"byteLength":4680,
			"byteOffset":135384,
			"target":34962
		},
		{
			"buffer":0,
			"byteLength":4680,
			"byteOffset":140064,
			"target":34962
		},
		{
			"buffer":0,
			"byteLength":3120,
			"byteOffset":144744,
			"target":34962
		},
		{
			"buffer":0,
			"byteLength":2232,
			"byteOffset":147864,
			"target":34963
		},
		{
			"buffer":0,
			"byteLength":1152,
			"byteOffset":150096,
			"target":34962
		},
		{
			"buffer":0,
			"byteLength":1152,
			"byteOffset":151248,
			"target":34962
		},
		{
			"buffer":0,
			"byteLength":768,
			"byteOffset":152400,
			"target":34962
		},
		{
			"buffer":0,
			"byteLength":288,
			"byteOffset":153168,
			"target":34963
		}
	],
	"buffers":[
		{
			"byteLength":153456,
			"uri":"pesi.bin"
		}
	]
}
