{
	"asset":{
		"generator":"Khronos glTF Blender I/O v4.2.57",
		"version":"2.0"
	},
	"scene":0,
	"scenes":[
		{
			"name":"Scene",
			"nodes":[
				0
			]
		}
	],
	"nodes":[
		{
			"mesh":0,
			"name":"Mesh_0.008",
			"rotation":[
				-0.01828727498650551,
				-0.14976400136947632,
				-0.052589111030101776,
				0.9871529340744019
			],
			"scale":[
				0.8253062963485718,
				0.8253062963485718,
				0.8253062963485718
			]
		}
	],
	"materials":[
		{
			"name":"Material_0.008",
			"normalTexture":{
				"index":0
			},
			"occlusionTexture":{
				"index":1
			},
			"pbrMetallicRoughness":{
				"baseColorTexture":{
					"index":2
				},
				"metallicFactor":0
			}
		},
		{
			"name":"Material_0.011",
			"normalTexture":{
				"index":3
			},
			"occlusionTexture":{
				"index":4
			},
			"pbrMetallicRoughness":{
				"baseColorTexture":{
					"index":5
				},
				"metallicFactor":0
			}
		}
	],
	"meshes":[
		{
			"name":"Mesh_0.008",
			"primitives":[
				{
					"attributes":{
						"POSITION":0,
						"NORMAL":1,
						"TEXCOORD_0":2
					},
					"indices":3,
					"material":0
				},
				{
					"attributes":{
						"POSITION":4,
						"NORMAL":5,
						"TEXCOORD_0":6
					},
					"indices":7,
					"material":1
				}
			]
		}
	],
	"textures":[
		{
			"sampler":0,
			"source":0
		},
		{
			"sampler":0,
			"source":1
		},
		{
			"sampler":0,
			"source":2
		},
		{
			"sampler":0,
			"source":3
		},
		{
			"sampler":0,
			"source":4
		},
		{
			"sampler":0,
			"source":5
		}
	],
	"images":[
		{
			"mimeType":"image/jpeg",
			"name":"Image_0",
			"uri":"Image_0.jpg"
		},
		{
			"mimeType":"image/jpeg",
			"name":"Image_1",
			"uri":"Image_1.jpg"
		},
		{
			"mimeType":"image/jpeg",
			"name":"Image_2",
			"uri":"Image_2.jpg"
		},
		{
			"mimeType":"image/jpeg",
			"name":"Image_0",
			"uri":"Image_0-1.jpg"
		},
		{
			"mimeType":"image/jpeg",
			"name":"Image_1",
			"uri":"Image_1-1.jpg"
		},
		{
			"mimeType":"image/jpeg",
			"name":"Image_2",
			"uri":"Image_2-1.jpg"
		}
	],
	"accessors":[
		{
			"bufferView":0,
			"componentType":5126,
			"count":23753,
			"max":[
				0.006006389856338501,
				0.23859500885009766,
				0.2771230638027191
			],
			"min":[
				-0.5626159906387329,
				-0.015374213457107544,
				-0.2507669925689697
			],
			"type":"VEC3"
		},
		{
			"bufferView":1,
			"componentType":5126,
			"count":23753,
			"type":"VEC3"
		},
		{
			"bufferView":2,
			"componentType":5126,
			"count":23753,
			"type":"VEC2"
		},
		{
			"bufferView":3,
			"componentType":5123,
			"count":23757,
			"type":"SCALAR"
		},
		{
			"bufferView":4,
			"componentType":5126,
			"count":11154,
			"max":[
				0.008740633726119995,
				0.02824561297893524,
				0.275650292634964
			],
			"min":[
				-0.5467873811721802,
				-0.033838480710983276,
				-0.2550608813762665
			],
			"type":"VEC3"
		},
		{
			"bufferView":5,
			"componentType":5126,
			"count":11154,
			"type":"VEC3"
		},
		{
			"bufferView":6,
			"componentType":5126,
			"count":11154,
			"type":"VEC2"
		},
		{
			"bufferView":7,
			"componentType":5123,
			"count":11154,
			"type":"SCALAR"
		}
	],
	"bufferViews":[
		{
			"buffer":0,
			"byteLength":285036,
			"byteOffset":0,
			"target":34962
		},
		{
			"buffer":0,
			"byteLength":285036,
			"byteOffset":285036,
			"target":34962
		},
		{
			"buffer":0,
			"byteLength":190024,
			"byteOffset":570072,
			"target":34962
		},
		{
			"buffer":0,
			"byteLength":47514,
			"byteOffset":760096,
			"target":34963
		},
		{
			"buffer":0,
			"byteLength":133848,
			"byteOffset":807612,
			"target":34962
		},
		{
			"buffer":0,
			"byteLength":133848,
			"byteOffset":941460,
			"target":34962
		},
		{
			"buffer":0,
			"byteLength":89232,
			"byteOffset":1075308,
			"target":34962
		},
		{
			"buffer":0,
			"byteLength":22308,
			"byteOffset":1164540,
			"target":34963
		}
	],
	"samplers":[
		{
			"magFilter":9729,
			"minFilter":9987
		}
	],
	"buffers":[
		{
			"byteLength":1186848,
			"uri":"cakiTOP.bin"
		}
	]
}
