{
	"asset":{
		"generator":"Khronos glTF Blender I/O v4.2.70",
		"version":"2.0"
	},
	"extensionsUsed":[
		"KHR_materials_specular"
	],
	"scene":0,
	"scenes":[
		{
			"name":"Scene",
			"nodes":[
				0,
				1
			]
		}
	],
	"nodes":[
		{
			"mesh":0,
			"name":"Cylinder.027",
			"translation":[
				0,
				1.4011303186416626,
				0.6199245452880859
			]
		},
		{
			"mesh":1,
			"name":"ant.003",
			"scale":[
				0.0014924354618415236,
				0.0014924363931640983,
				0.0014924363931640983
			]
		}
	],
	"animations":[
		{
			"channels":[
				{
					"sampler":0,
					"target":{
						"node":0,
						"path":"translation"
					}
				},
				{
					"sampler":1,
					"target":{
						"node":0,
						"path":"rotation"
					}
				}
			],
			"name":"Scene",
			"samplers":[
				{
					"input":14,
					"interpolation":"LINEAR",
					"output":15
				},
				{
					"input":14,
					"interpolation":"LINEAR",
					"output":16
				}
			]
		}
	],
	"materials":[
		{
			"doubleSided":true,
			"name":"Material.006",
			"pbrMetallicRoughness":{
				"baseColorFactor":[
					0,
					0,
					0,
					1
				],
				"metallicFactor":0,
				"roughnessFactor":0.5
			}
		},
		{
			"doubleSided":true,
			"name":"Material.005",
			"pbrMetallicRoughness":{
				"baseColorFactor":[
					0.07668785750865936,
					0.0928572416305542,
					0.0928572416305542,
					1
				],
				"metallicFactor":0,
				"roughnessFactor":0.5
			}
		},
		{
			"doubleSided":true,
			"extensions":{
				"KHR_materials_specular":{
					"specularFactor":0.8000001907348633
				}
			},
			"name":"MI_Ari_CrazyBody",
			"pbrMetallicRoughness":{
				"metallicFactor":0,
				"roughnessFactor":0.5527864098548889
			}
		}
	],
	"meshes":[
		{
			"name":"Cylinder.027",
			"primitives":[
				{
					"attributes":{
						"POSITION":0,
						"NORMAL":1,
						"TEXCOORD_0":2
					},
					"indices":3,
					"material":0
				},
				{
					"attributes":{
						"POSITION":4,
						"NORMAL":5,
						"TEXCOORD_0":6
					},
					"indices":7,
					"material":1
				}
			]
		},
		{
			"name":"Mesh",
			"primitives":[
				{
					"attributes":{
						"POSITION":8,
						"NORMAL":9,
						"TEXCOORD_0":10,
						"COLOR_0":11,
						"COLOR_1":12
					},
					"indices":13,
					"material":2
				}
			]
		}
	],
	"accessors":[
		{
			"bufferView":0,
			"componentType":5126,
			"count":322,
			"max":[
				0.7385709285736084,
				0.2695099115371704,
				0.2717607021331787
			],
			"min":[
				0.6083829402923584,
				-0.26866596937179565,
				-0.26896536350250244
			],
			"type":"VEC3"
		},
		{
			"bufferView":1,
			"componentType":5126,
			"count":322,
			"type":"VEC3"
		},
		{
			"bufferView":2,
			"componentType":5126,
			"count":322,
			"type":"VEC2"
		},
		{
			"bufferView":3,
			"componentType":5123,
			"count":1344,
			"type":"SCALAR"
		},
		{
			"bufferView":4,
			"componentType":5126,
			"count":98,
			"max":[
				0.874066948890686,
				0.017415447160601616,
				0.018021101132035255
			],
			"min":[
				0,
				-0.017415495589375496,
				-0.018021149560809135
			],
			"type":"VEC3"
		},
		{
			"bufferView":5,
			"componentType":5126,
			"count":98,
			"type":"VEC3"
		},
		{
			"bufferView":6,
			"componentType":5126,
			"count":98,
			"type":"VEC2"
		},
		{
			"bufferView":7,
			"componentType":5123,
			"count":282,
			"type":"SCALAR"
		},
		{
			"bufferView":8,
			"componentType":5126,
			"count":6613,
			"max":[
				523.5250244140625,
				526.4076538085938,
				879.4214477539062
			],
			"min":[
				-523.5250244140625,
				-2.374423027038574,
				-638.2708129882812
			],
			"type":"VEC3"
		},
		{
			"bufferView":9,
			"componentType":5126,
			"count":6613,
			"type":"VEC3"
		},
		{
			"bufferView":10,
			"componentType":5126,
			"count":6613,
			"type":"VEC2"
		},
		{
			"bufferView":11,
			"componentType":5121,
			"count":6613,
			"normalized":true,
			"type":"VEC4"
		},
		{
			"bufferView":12,
			"componentType":5126,
			"count":6613,
			"type":"VEC3"
		},
		{
			"bufferView":13,
			"componentType":5123,
			"count":29304,
			"type":"SCALAR"
		},
		{
			"bufferView":14,
			"componentType":5126,
			"count":310,
			"max":[
				12.916666666666666
			],
			"min":[
				0.041666666666666664
			],
			"type":"SCALAR"
		},
		{
			"bufferView":15,
			"componentType":5126,
			"count":310,
			"type":"VEC3"
		},
		{
			"bufferView":16,
			"componentType":5126,
			"count":310,
			"type":"VEC4"
		}
	],
	"bufferViews":[
		{
			"buffer":0,
			"byteLength":3864,
			"byteOffset":0,
			"target":34962
		},
		{
			"buffer":0,
			"byteLength":3864,
			"byteOffset":3864,
			"target":34962
		},
		{
			"buffer":0,
			"byteLength":2576,
			"byteOffset":7728,
			"target":34962
		},
		{
			"buffer":0,
			"byteLength":2688,
			"byteOffset":10304,
			"target":34963
		},
		{
			"buffer":0,
			"byteLength":1176,
			"byteOffset":12992,
			"target":34962
		},
		{
			"buffer":0,
			"byteLength":1176,
			"byteOffset":14168,
			"target":34962
		},
		{
			"buffer":0,
			"byteLength":784,
			"byteOffset":15344,
			"target":34962
		},
		{
			"buffer":0,
			"byteLength":564,
			"byteOffset":16128,
			"target":34963
		},
		{
			"buffer":0,
			"byteLength":79356,
			"byteOffset":16692,
			"target":34962
		},
		{
			"buffer":0,
			"byteLength":79356,
			"byteOffset":96048,
			"target":34962
		},
		{
			"buffer":0,
			"byteLength":52904,
			"byteOffset":175404,
			"target":34962
		},
		{
			"buffer":0,
			"byteLength":26452,
			"byteOffset":228308,
			"target":34962
		},
		{
			"buffer":0,
			"byteLength":79356,
			"byteOffset":254760,
			"target":34962
		},
		{
			"buffer":0,
			"byteLength":58608,
			"byteOffset":334116,
			"target":34963
		},
		{
			"buffer":0,
			"byteLength":1240,
			"byteOffset":392724
		},
		{
			"buffer":0,
			"byteLength":3720,
			"byteOffset":393964
		},
		{
			"buffer":0,
			"byteLength":4960,
			"byteOffset":397684
		}
	],
	"buffers":[
		{
			"byteLength":402644,
			"uri":"ant.bin"
		}
	]
}
