{
	"asset":{
		"generator":"Khronos glTF Blender I/O v4.2.70",
		"version":"2.0"
	},
	"scene":0,
	"scenes":[
		{
			"name":"Scene",
			"nodes":[
				0
			]
		}
	],
	"nodes":[
		{
			"mesh":0,
			"name":"Cylinder.027",
			"translation":[
				0,
				1.4011303186416626,
				0.6199245452880859
			]
		}
	],
	"animations":[
		{
			"channels":[
				{
					"sampler":0,
					"target":{
						"node":0,
						"path":"translation"
					}
				},
				{
					"sampler":1,
					"target":{
						"node":0,
						"path":"rotation"
					}
				}
			],
			"name":"Scene",
			"samplers":[
				{
					"input":8,
					"interpolation":"LINEAR",
					"output":9
				},
				{
					"input":8,
					"interpolation":"LINEAR",
					"output":10
				}
			]
		}
	],
	"materials":[
		{
			"doubleSided":true,
			"name":"Material.006",
			"pbrMetallicRoughness":{
				"baseColorFactor":[
					0,
					0,
					0,
					1
				],
				"metallicFactor":0,
				"roughnessFactor":0.5
			}
		},
		{
			"doubleSided":true,
			"name":"Material.005",
			"pbrMetallicRoughness":{
				"baseColorFactor":[
					0.07668785750865936,
					0.0928572416305542,
					0.0928572416305542,
					1
				],
				"metallicFactor":0,
				"roughnessFactor":0.5
			}
		}
	],
	"meshes":[
		{
			"name":"Cylinder.027",
			"primitives":[
				{
					"attributes":{
						"POSITION":0,
						"NORMAL":1,
						"TEXCOORD_0":2
					},
					"indices":3,
					"material":0
				},
				{
					"attributes":{
						"POSITION":4,
						"NORMAL":5,
						"TEXCOORD_0":6
					},
					"indices":7,
					"material":1
				}
			]
		}
	],
	"accessors":[
		{
			"bufferView":0,
			"componentType":5126,
			"count":644,
			"max":[
				0.7385709285736084,
				0.2695099115371704,
				0.2717607021331787
			],
			"min":[
				-0.7385709285736084,
				-0.26866596937179565,
				-0.26896536350250244
			],
			"type":"VEC3"
		},
		{
			"bufferView":1,
			"componentType":5126,
			"count":644,
			"type":"VEC3"
		},
		{
			"bufferView":2,
			"componentType":5126,
			"count":644,
			"type":"VEC2"
		},
		{
			"bufferView":3,
			"componentType":5123,
			"count":2688,
			"type":"SCALAR"
		},
		{
			"bufferView":4,
			"componentType":5126,
			"count":163,
			"max":[
				0.874066948890686,
				0.017415447160601616,
				0.018021101132035255
			],
			"min":[
				-0.874066948890686,
				-0.017415495589375496,
				-0.018021149560809135
			],
			"type":"VEC3"
		},
		{
			"bufferView":5,
			"componentType":5126,
			"count":163,
			"type":"VEC3"
		},
		{
			"bufferView":6,
			"componentType":5126,
			"count":163,
			"type":"VEC2"
		},
		{
			"bufferView":7,
			"componentType":5123,
			"count":564,
			"type":"SCALAR"
		},
		{
			"bufferView":8,
			"componentType":5126,
			"count":310,
			"max":[
				12.916666666666666
			],
			"min":[
				0.041666666666666664
			],
			"type":"SCALAR"
		},
		{
			"bufferView":9,
			"componentType":5126,
			"count":310,
			"type":"VEC3"
		},
		{
			"bufferView":10,
			"componentType":5126,
			"count":310,
			"type":"VEC4"
		}
	],
	"bufferViews":[
		{
			"buffer":0,
			"byteLength":7728,
			"byteOffset":0,
			"target":34962
		},
		{
			"buffer":0,
			"byteLength":7728,
			"byteOffset":7728,
			"target":34962
		},
		{
			"buffer":0,
			"byteLength":5152,
			"byteOffset":15456,
			"target":34962
		},
		{
			"buffer":0,
			"byteLength":5376,
			"byteOffset":20608,
			"target":34963
		},
		{
			"buffer":0,
			"byteLength":1956,
			"byteOffset":25984,
			"target":34962
		},
		{
			"buffer":0,
			"byteLength":1956,
			"byteOffset":27940,
			"target":34962
		},
		{
			"buffer":0,
			"byteLength":1304,
			"byteOffset":29896,
			"target":34962
		},
		{
			"buffer":0,
			"byteLength":1128,
			"byteOffset":31200,
			"target":34963
		},
		{
			"buffer":0,
			"byteLength":1240,
			"byteOffset":32328
		},
		{
			"buffer":0,
			"byteLength":3720,
			"byteOffset":33568
		},
		{
			"buffer":0,
			"byteLength":4960,
			"byteOffset":37288
		}
	],
	"buffers":[
		{
			"byteLength":42248,
			"uri":"ant_without.bin"
		}
	]
}
