{
	"asset":{
		"generator":"Khronos glTF Blender I/O v4.2.70",
		"version":"2.0"
	},
	"extensionsUsed":[
		"KHR_materials_emissive_strength"
	],
	"scene":0,
	"scenes":[
		{
			"name":"Scene",
			"nodes":[
				4
			]
		}
	],
	"nodes":[
		{
			"name":"Bone.002",
			"translation":[
				0,
				0.7930277585983276,
				0
			]
		},
		{
			"children":[
				0
			],
			"name":"Bone.001",
			"translation":[
				0,
				0.6655780076980591,
				0
			]
		},
		{
			"children":[
				1
			],
			"name":"Bone",
			"rotation":[
				0,
				1.1920928955078125e-07,
				0,
				1
			],
			"translation":[
				0,
				-0.4049502909183502,
				0
			]
		},
		{
			"mesh":0,
			"name":"Sphere",
			"skin":0
		},
		{
			"children":[
				3,
				2
			],
			"name":"Armature"
		}
	],
	"materials":[
		{
			"doubleSided":true,
			"emissiveFactor":[
				0.4000000059604645,
				0.00815929261087317,
				0.00815929261087317
			],
			"name":"Inner",
			"pbrMetallicRoughness":{
				"baseColorFactor":[
					0.8001194596290588,
					0.03628252446651459,
					0.030148111283779144,
					1
				],
				"metallicFactor":0,
				"roughnessFactor":0.5
			}
		},
		{
			"alphaMode":"BLEND",
			"doubleSided":true,
			"emissiveFactor":[
				1,
				0.1781112104654312,
				0.027781281620264053
			],
			"extensions":{
				"KHR_materials_emissive_strength":{
					"emissiveStrength":2
				}
			},
			"name":"Outer",
			"pbrMetallicRoughness":{
				"baseColorFactor":[
					0.800000011920929,
					0.800000011920929,
					0.800000011920929,
					0.4000000059604645
				],
				"metallicFactor":0,
				"roughnessFactor":0.5
			}
		}
	],
	"meshes":[
		{
			"name":"Sphere",
			"primitives":[
				{
					"attributes":{
						"POSITION":0,
						"NORMAL":1,
						"TEXCOORD_0":2,
						"JOINTS_0":3,
						"WEIGHTS_0":4
					},
					"indices":5,
					"material":0
				},
				{
					"attributes":{
						"POSITION":6,
						"NORMAL":7,
						"TEXCOORD_0":8,
						"JOINTS_0":9,
						"WEIGHTS_0":10
					},
					"indices":5,
					"material":1
				}
			]
		}
	],
	"skins":[
		{
			"inverseBindMatrices":11,
			"joints":[
				2,
				1,
				0
			],
			"name":"Armature"
		}
	],
	"accessors":[
		{
			"bufferView":0,
			"componentType":5126,
			"count":992,
			"max":[
				0.6115016341209412,
				1.0528846979141235,
				0.4359443783760071
			],
			"min":[
				-0.6115016341209412,
				-0.34098169207572937,
				-0.43594425916671753
			],
			"type":"VEC3"
		},
		{
			"bufferView":1,
			"componentType":5126,
			"count":992,
			"type":"VEC3"
		},
		{
			"bufferView":2,
			"componentType":5126,
			"count":992,
			"type":"VEC2"
		},
		{
			"bufferView":3,
			"componentType":5121,
			"count":992,
			"type":"VEC4"
		},
		{
			"bufferView":4,
			"componentType":5126,
			"count":992,
			"type":"VEC4"
		},
		{
			"bufferView":5,
			"componentType":5123,
			"count":1440,
			"type":"SCALAR"
		},
		{
			"bufferView":6,
			"componentType":5126,
			"count":992,
			"max":[
				1,
				1.8746929168701172,
				0.7129079103469849
			],
			"min":[
				-1,
				-0.40472280979156494,
				-0.7129077911376953
			],
			"type":"VEC3"
		},
		{
			"bufferView":7,
			"componentType":5126,
			"count":992,
			"type":"VEC3"
		},
		{
			"bufferView":8,
			"componentType":5126,
			"count":992,
			"type":"VEC2"
		},
		{
			"bufferView":9,
			"componentType":5121,
			"count":992,
			"type":"VEC4"
		},
		{
			"bufferView":10,
			"componentType":5126,
			"count":992,
			"type":"VEC4"
		},
		{
			"bufferView":11,
			"componentType":5126,
			"count":3,
			"type":"MAT4"
		}
	],
	"bufferViews":[
		{
			"buffer":0,
			"byteLength":11904,
			"byteOffset":0,
			"target":34962
		},
		{
			"buffer":0,
			"byteLength":11904,
			"byteOffset":11904,
			"target":34962
		},
		{
			"buffer":0,
			"byteLength":7936,
			"byteOffset":23808,
			"target":34962
		},
		{
			"buffer":0,
			"byteLength":3968,
			"byteOffset":31744,
			"target":34962
		},
		{
			"buffer":0,
			"byteLength":15872,
			"byteOffset":35712,
			"target":34962
		},
		{
			"buffer":0,
			"byteLength":2880,
			"byteOffset":51584,
			"target":34963
		},
		{
			"buffer":0,
			"byteLength":11904,
			"byteOffset":54464,
			"target":34962
		},
		{
			"buffer":0,
			"byteLength":11904,
			"byteOffset":66368,
			"target":34962
		},
		{
			"buffer":0,
			"byteLength":7936,
			"byteOffset":78272,
			"target":34962
		},
		{
			"buffer":0,
			"byteLength":3968,
			"byteOffset":86208,
			"target":34962
		},
		{
			"buffer":0,
			"byteLength":15872,
			"byteOffset":90176,
			"target":34962
		},
		{
			"buffer":0,
			"byteLength":192,
			"byteOffset":106048
		}
	],
	"buffers":[
		{
			"byteLength":106240,
			"uri":"fire.bin"
		}
	]
}
