{
	"asset":{
		"generator":"Khronos glTF Blender I/O v4.2.70",
		"version":"2.0"
	},
	"scene":0,
	"scenes":[
		{
			"name":"Scene",
			"nodes":[
				0
			]
		}
	],
	"nodes":[
		{
			"mesh":0,
			"name":"Bottom",
			"rotation":[
				0.7071068286895752,
				0,
				0,
				0.7071068286895752
			]
		}
	],
	"materials":[
		{
			"doubleSided":true,
			"name":"main",
			"pbrMetallicRoughness":{
				"baseColorTexture":{
					"index":0
				},
				"metallicFactor":0
			}
		}
	],
	"meshes":[
		{
			"name":"mesh",
			"primitives":[
				{
					"attributes":{
						"POSITION":0,
						"NORMAL":1,
						"TEXCOORD_0":2
					},
					"indices":3,
					"material":0
				}
			]
		}
	],
	"textures":[
		{
			"sampler":0,
			"source":0
		}
	],
	"images":[
		{
			"mimeType":"image/jpeg",
			"name":"texgen_0",
			"uri":"texgen_0.jpg"
		}
	],
	"accessors":[
		{
			"bufferView":0,
			"componentType":5126,
			"count":8896,
			"max":[
				0.20991814136505127,
				0.2619931995868683,
				0.009314881637692451
			],
			"min":[
				-0.34092897176742554,
				-0.3029574155807495,
				-0.3800983428955078
			],
			"type":"VEC3"
		},
		{
			"bufferView":1,
			"componentType":5126,
			"count":8896,
			"type":"VEC3"
		},
		{
			"bufferView":2,
			"componentType":5126,
			"count":8896,
			"type":"VEC2"
		},
		{
			"bufferView":3,
			"componentType":5123,
			"count":34767,
			"type":"SCALAR"
		}
	],
	"bufferViews":[
		{
			"buffer":0,
			"byteLength":106752,
			"byteOffset":0,
			"target":34962
		},
		{
			"buffer":0,
			"byteLength":106752,
			"byteOffset":106752,
			"target":34962
		},
		{
			"buffer":0,
			"byteLength":71168,
			"byteOffset":213504,
			"target":34962
		},
		{
			"buffer":0,
			"byteLength":69534,
			"byteOffset":284672,
			"target":34963
		}
	],
	"samplers":[
		{
			"magFilter":9729,
			"minFilter":9987,
			"wrapS":33071,
			"wrapT":33071
		}
	],
	"buffers":[
		{
			"byteLength":354208,
			"uri":"pineapple_bottom.bin"
		}
	]
}
