{
	"asset":{
		"generator":"Khronos glTF Blender I/O v4.2.70",
		"version":"2.0"
	},
	"scene":0,
	"scenes":[
		{
			"name":"Scene",
			"nodes":[
				0
			]
		}
	],
	"nodes":[
		{
			"mesh":0,
			"name":"Top",
			"rotation":[
				0.5262619256973267,
				-0.04947514459490776,
				0.8488739728927612,
				0.003715658560395241
			],
			"scale":[
				1.0951393842697144,
				1.0951393842697144,
				1.0951392650604248
			]
		}
	],
	"materials":[
		{
			"name":"Material_0.001",
			"normalTexture":{
				"index":0
			},
			"occlusionTexture":{
				"index":1
			},
			"pbrMetallicRoughness":{
				"baseColorTexture":{
					"index":2
				},
				"metallicFactor":0
			}
		},
		{
			"name":"Material_0.002",
			"normalTexture":{
				"index":3
			},
			"occlusionTexture":{
				"index":4
			},
			"pbrMetallicRoughness":{
				"baseColorTexture":{
					"index":5
				},
				"metallicFactor":0
			}
		}
	],
	"meshes":[
		{
			"name":"Mesh_0.001",
			"primitives":[
				{
					"attributes":{
						"POSITION":0,
						"NORMAL":1,
						"TEXCOORD_0":2
					},
					"indices":3,
					"material":0
				},
				{
					"attributes":{
						"POSITION":4,
						"NORMAL":5,
						"TEXCOORD_0":6
					},
					"indices":7,
					"material":1
				}
			]
		}
	],
	"textures":[
		{
			"sampler":0,
			"source":0
		},
		{
			"sampler":0,
			"source":1
		},
		{
			"sampler":0,
			"source":2
		},
		{
			"sampler":0,
			"source":3
		},
		{
			"sampler":0,
			"source":4
		},
		{
			"sampler":0,
			"source":5
		}
	],
	"images":[
		{
			"mimeType":"image/jpeg",
			"name":"Image_0",
			"uri":"Image_0.jpg"
		},
		{
			"mimeType":"image/jpeg",
			"name":"Image_1",
			"uri":"Image_1.jpg"
		},
		{
			"mimeType":"image/jpeg",
			"name":"Image_2",
			"uri":"Image_2.jpg"
		},
		{
			"mimeType":"image/jpeg",
			"name":"Image_0",
			"uri":"Image_0-1.jpg"
		},
		{
			"mimeType":"image/jpeg",
			"name":"Image_1",
			"uri":"Image_1-1.jpg"
		},
		{
			"mimeType":"image/jpeg",
			"name":"Image_2",
			"uri":"Image_2-1.jpg"
		}
	],
	"accessors":[
		{
			"bufferView":0,
			"componentType":5126,
			"count":17004,
			"max":[
				0.27927085757255554,
				0.06402410566806793,
				0.0010573219042271376
			],
			"min":[
				-0.20642447471618652,
				-0.292752206325531,
				-0.49320176243782043
			],
			"type":"VEC3"
		},
		{
			"bufferView":1,
			"componentType":5126,
			"count":17004,
			"type":"VEC3"
		},
		{
			"bufferView":2,
			"componentType":5126,
			"count":17004,
			"type":"VEC2"
		},
		{
			"bufferView":3,
			"componentType":5123,
			"count":17004,
			"type":"SCALAR"
		},
		{
			"bufferView":4,
			"componentType":5126,
			"count":46339,
			"max":[
				0.32064294815063477,
				-0.2633647918701172,
				0.09086227416992188
			],
			"min":[
				-0.4261205792427063,
				-1.3197071552276611,
				-0.6406823396682739
			],
			"type":"VEC3"
		},
		{
			"bufferView":5,
			"componentType":5126,
			"count":46339,
			"type":"VEC3"
		},
		{
			"bufferView":6,
			"componentType":5126,
			"count":46339,
			"type":"VEC2"
		},
		{
			"bufferView":7,
			"componentType":5123,
			"count":46341,
			"type":"SCALAR"
		}
	],
	"bufferViews":[
		{
			"buffer":0,
			"byteLength":204048,
			"byteOffset":0,
			"target":34962
		},
		{
			"buffer":0,
			"byteLength":204048,
			"byteOffset":204048,
			"target":34962
		},
		{
			"buffer":0,
			"byteLength":136032,
			"byteOffset":408096,
			"target":34962
		},
		{
			"buffer":0,
			"byteLength":34008,
			"byteOffset":544128,
			"target":34963
		},
		{
			"buffer":0,
			"byteLength":556068,
			"byteOffset":578136,
			"target":34962
		},
		{
			"buffer":0,
			"byteLength":556068,
			"byteOffset":1134204,
			"target":34962
		},
		{
			"buffer":0,
			"byteLength":370712,
			"byteOffset":1690272,
			"target":34962
		},
		{
			"buffer":0,
			"byteLength":92682,
			"byteOffset":2060984,
			"target":34963
		}
	],
	"samplers":[
		{
			"magFilter":9729,
			"minFilter":9987
		}
	],
	"buffers":[
		{
			"byteLength":2153668,
			"uri":"pineapple_top.bin"
		}
	]
}
