{
	"asset":{
		"generator":"Khronos glTF Blender I/O v4.2.57",
		"version":"2.0"
	},
	"scene":0,
	"scenes":[
		{
			"name":"Scene",
			"nodes":[
				0
			]
		}
	],
	"nodes":[
		{
			"mesh":0,
			"name":"Roundcube",
			"scale":[
				1.3361926078796387,
				0.10503245890140533,
				0.44957777857780457
			]
		}
	],
	"materials":[
		{
			"doubleSided":true,
			"name":"Material.006",
			"pbrMetallicRoughness":{
				"baseColorFactor":[
					0,
					0,
					0,
					1
				],
				"metallicFactor":0,
				"roughnessFactor":0.5
			}
		},
		{
			"doubleSided":true,
			"name":"Material.004",
			"pbrMetallicRoughness":{
				"metallicFactor":0,
				"roughnessFactor":0.5
			}
		},
		{
			"doubleSided":true,
			"name":"Material.002",
			"pbrMetallicRoughness":{
				"baseColorFactor":[
					0.3857142925262451,
					0.3857142925262451,
					0.3857142925262451,
					1
				],
				"metallicFactor":0,
				"roughnessFactor":0.5
			}
		},
		{
			"doubleSided":true,
			"name":"Material.003",
			"pbrMetallicRoughness":{
				"metallicFactor":0,
				"roughnessFactor":0.5
			}
		},
		{
			"doubleSided":true,
			"name":"Material.005",
			"pbrMetallicRoughness":{
				"baseColorFactor":[
					0.07668785750865936,
					0.0928572416305542,
					0.0928572416305542,
					1
				],
				"metallicFactor":0,
				"roughnessFactor":0.5
			}
		}
	],
	"meshes":[
		{
			"name":"Roundcube",
			"primitives":[
				{
					"attributes":{
						"POSITION":0,
						"NORMAL":1,
						"TEXCOORD_0":2
					},
					"indices":3,
					"material":0
				},
				{
					"attributes":{
						"POSITION":4,
						"NORMAL":5,
						"TEXCOORD_0":6
					},
					"indices":7,
					"material":1
				},
				{
					"attributes":{
						"POSITION":8,
						"NORMAL":9,
						"TEXCOORD_0":10
					},
					"indices":11,
					"material":2
				},
				{
					"attributes":{
						"POSITION":12,
						"NORMAL":13,
						"TEXCOORD_0":14
					},
					"indices":15,
					"material":3
				},
				{
					"attributes":{
						"POSITION":16,
						"NORMAL":17,
						"TEXCOORD_0":18
					},
					"indices":19,
					"material":4
				}
			]
		}
	],
	"accessors":[
		{
			"bufferView":0,
			"componentType":5126,
			"count":920,
			"max":[
				1,
				8.641033172607422,
				2.264554023742676
			],
			"min":[
				-1,
				-1,
				-2.1411218643188477
			],
			"type":"VEC3"
		},
		{
			"bufferView":1,
			"componentType":5126,
			"count":920,
			"type":"VEC3"
		},
		{
			"bufferView":2,
			"componentType":5126,
			"count":920,
			"type":"VEC2"
		},
		{
			"bufferView":3,
			"componentType":5123,
			"count":3588,
			"type":"SCALAR"
		},
		{
			"bufferView":4,
			"componentType":5126,
			"count":144,
			"max":[
				-0.8395857810974121,
				7.727658271789551,
				1.7585560083389282
			],
			"min":[
				-0.9010643362998962,
				6.064154148101807,
				-1.6674761772155762
			],
			"type":"VEC3"
		},
		{
			"bufferView":5,
			"componentType":5126,
			"count":144,
			"type":"VEC3"
		},
		{
			"bufferView":6,
			"componentType":5126,
			"count":144,
			"type":"VEC2"
		},
		{
			"bufferView":7,
			"componentType":5123,
			"count":216,
			"type":"SCALAR"
		},
		{
			"bufferView":8,
			"componentType":5126,
			"count":216,
			"max":[
				0.9205030202865601,
				11.60345458984375,
				1.8760838508605957
			],
			"min":[
				-1.2103221416473389,
				-6.671297073364258,
				-1.8012685775756836
			],
			"type":"VEC3"
		},
		{
			"bufferView":9,
			"componentType":5126,
			"count":216,
			"type":"VEC3"
		},
		{
			"bufferView":10,
			"componentType":5126,
			"count":216,
			"type":"VEC2"
		},
		{
			"bufferView":11,
			"componentType":5123,
			"count":324,
			"type":"SCALAR"
		},
		{
			"bufferView":12,
			"componentType":5126,
			"count":144,
			"max":[
				0.9205030202865601,
				-6.163539886474609,
				1.8760839700698853
			],
			"min":[
				-1.3103289604187012,
				-6.671298027038574,
				-1.8012688159942627
			],
			"type":"VEC3"
		},
		{
			"bufferView":13,
			"componentType":5126,
			"count":144,
			"type":"VEC3"
		},
		{
			"bufferView":14,
			"componentType":5126,
			"count":144,
			"type":"VEC2"
		},
		{
			"bufferView":15,
			"componentType":5123,
			"count":216,
			"type":"SCALAR"
		},
		{
			"bufferView":16,
			"componentType":5126,
			"count":130,
			"max":[
				-0.8588605523109436,
				7.315297603607178,
				2.565938949584961
			],
			"min":[
				-0.8858343958854675,
				6.983675479888916,
				-2.4123706817626953
			],
			"type":"VEC3"
		},
		{
			"bufferView":17,
			"componentType":5126,
			"count":130,
			"type":"VEC3"
		},
		{
			"bufferView":18,
			"componentType":5126,
			"count":130,
			"type":"VEC2"
		},
		{
			"bufferView":19,
			"componentType":5123,
			"count":372,
			"type":"SCALAR"
		}
	],
	"bufferViews":[
		{
			"buffer":0,
			"byteLength":11040,
			"byteOffset":0,
			"target":34962
		},
		{
			"buffer":0,
			"byteLength":11040,
			"byteOffset":11040,
			"target":34962
		},
		{
			"buffer":0,
			"byteLength":7360,
			"byteOffset":22080,
			"target":34962
		},
		{
			"buffer":0,
			"byteLength":7176,
			"byteOffset":29440,
			"target":34963
		},
		{
			"buffer":0,
			"byteLength":1728,
			"byteOffset":36616,
			"target":34962
		},
		{
			"buffer":0,
			"byteLength":1728,
			"byteOffset":38344,
			"target":34962
		},
		{
			"buffer":0,
			"byteLength":1152,
			"byteOffset":40072,
			"target":34962
		},
		{
			"buffer":0,
			"byteLength":432,
			"byteOffset":41224,
			"target":34963
		},
		{
			"buffer":0,
			"byteLength":2592,
			"byteOffset":41656,
			"target":34962
		},
		{
			"buffer":0,
			"byteLength":2592,
			"byteOffset":44248,
			"target":34962
		},
		{
			"buffer":0,
			"byteLength":1728,
			"byteOffset":46840,
			"target":34962
		},
		{
			"buffer":0,
			"byteLength":648,
			"byteOffset":48568,
			"target":34963
		},
		{
			"buffer":0,
			"byteLength":1728,
			"byteOffset":49216,
			"target":34962
		},
		{
			"buffer":0,
			"byteLength":1728,
			"byteOffset":50944,
			"target":34962
		},
		{
			"buffer":0,
			"byteLength":1152,
			"byteOffset":52672,
			"target":34962
		},
		{
			"buffer":0,
			"byteLength":432,
			"byteOffset":53824,
			"target":34963
		},
		{
			"buffer":0,
			"byteLength":1560,
			"byteOffset":54256,
			"target":34962
		},
		{
			"buffer":0,
			"byteLength":1560,
			"byteOffset":55816,
			"target":34962
		},
		{
			"buffer":0,
			"byteLength":1040,
			"byteOffset":57376,
			"target":34962
		},
		{
			"buffer":0,
			"byteLength":744,
			"byteOffset":58416,
			"target":34963
		}
	],
	"buffers":[
		{
			"byteLength":59160,
			"uri":"panca.bin"
		}
	]
}
