{
	"asset":{
		"generator":"Khronos glTF Blender I/O v4.2.70",
		"version":"2.0"
	},
	"scene":0,
	"scenes":[
		{
			"name":"Scene",
			"nodes":[
				0
			]
		}
	],
	"nodes":[
		{
			"mesh":0,
			"name":"Cube"
		}
	],
	"meshes":[
		{
			"name":"Cube.001",
			"primitives":[
				{
					"attributes":{
						"POSITION":0,
						"NORMAL":1,
						"TEXCOORD_0":2
					},
					"indices":3
				}
			]
		}
	],
	"accessors":[
		{
			"bufferView":0,
			"componentType":5126,
			"count":2980,
			"max":[
				0.8271166682243347,
				0.2161497175693512,
				0.8271166682243347
			],
			"min":[
				-0.8271166682243347,
				0.0024351051542907953,
				-0.8271166682243347
			],
			"type":"VEC3"
		},
		{
			"bufferView":1,
			"componentType":5126,
			"count":2980,
			"type":"VEC3"
		},
		{
			"bufferView":2,
			"componentType":5126,
			"count":2980,
			"type":"VEC2"
		},
		{
			"bufferView":3,
			"componentType":5123,
			"count":12288,
			"type":"SCALAR"
		}
	],
	"bufferViews":[
		{
			"buffer":0,
			"byteLength":35760,
			"byteOffset":0,
			"target":34962
		},
		{
			"buffer":0,
			"byteLength":35760,
			"byteOffset":35760,
			"target":34962
		},
		{
			"buffer":0,
			"byteLength":23840,
			"byteOffset":71520,
			"target":34962
		},
		{
			"buffer":0,
			"byteLength":24576,
			"byteOffset":95360,
			"target":34963
		}
	],
	"buffers":[
		{
			"byteLength":119936,
			"uri":"fruitbowl.bin"
		}
	]
}
