{
	"asset":{
		"generator":"Khronos glTF Blender I/O v4.2.70",
		"version":"2.0"
	},
	"scene":0,
	"scenes":[
		{
			"name":"Scene",
			"nodes":[
				0
			]
		}
	],
	"nodes":[
		{
			"mesh":0,
			"name":"Mesh_0.014",
			"rotation":[
				0.7641543745994568,
				0.07966158539056778,
				-0.6366564035415649,
				0.06626228243112564
			],
			"scale":[
				1.0912038087844849,
				1.091204047203064,
				1.091204285621643
			]
		}
	],
	"materials":[
		{
			"name":"Material_0.014",
			"normalTexture":{
				"index":0
			},
			"occlusionTexture":{
				"index":1
			},
			"pbrMetallicRoughness":{
				"baseColorTexture":{
					"index":2
				},
				"metallicFactor":0
			}
		},
		{
			"name":"Material_0.005",
			"normalTexture":{
				"index":3
			},
			"occlusionTexture":{
				"index":4
			},
			"pbrMetallicRoughness":{
				"baseColorTexture":{
					"index":5
				},
				"metallicFactor":0
			}
		}
	],
	"meshes":[
		{
			"name":"Mesh_0.014",
			"primitives":[
				{
					"attributes":{
						"POSITION":0,
						"NORMAL":1,
						"TEXCOORD_0":2
					},
					"indices":3,
					"material":0
				},
				{
					"attributes":{
						"POSITION":4,
						"NORMAL":5,
						"TEXCOORD_0":6
					},
					"indices":7,
					"material":1
				}
			]
		}
	],
	"textures":[
		{
			"sampler":0,
			"source":0
		},
		{
			"sampler":0,
			"source":1
		},
		{
			"sampler":0,
			"source":2
		},
		{
			"sampler":0,
			"source":3
		},
		{
			"sampler":0,
			"source":4
		},
		{
			"sampler":0,
			"source":5
		}
	],
	"images":[
		{
			"mimeType":"image/jpeg",
			"name":"Image_0",
			"uri":"Image_0.jpg"
		},
		{
			"mimeType":"image/jpeg",
			"name":"Image_1",
			"uri":"Image_1.jpg"
		},
		{
			"mimeType":"image/jpeg",
			"name":"Image_2",
			"uri":"Image_2.jpg"
		},
		{
			"mimeType":"image/jpeg",
			"name":"Image_0",
			"uri":"Image_0-1.jpg"
		},
		{
			"mimeType":"image/jpeg",
			"name":"Image_1",
			"uri":"Image_1-1.jpg"
		},
		{
			"mimeType":"image/jpeg",
			"name":"Image_2",
			"uri":"Image_2-1.jpg"
		}
	],
	"accessors":[
		{
			"bufferView":0,
			"componentType":5126,
			"count":8158,
			"max":[
				0.012629571370780468,
				0.05246208235621452,
				0.13975563645362854
			],
			"min":[
				-0.7174336314201355,
				-0.07111415266990662,
				-0.27887970209121704
			],
			"type":"VEC3"
		},
		{
			"bufferView":1,
			"componentType":5126,
			"count":8158,
			"type":"VEC3"
		},
		{
			"bufferView":2,
			"componentType":5126,
			"count":8158,
			"type":"VEC2"
		},
		{
			"bufferView":3,
			"componentType":5123,
			"count":8160,
			"type":"SCALAR"
		},
		{
			"bufferView":4,
			"componentType":5126,
			"count":3390,
			"max":[
				0.021715620532631874,
				0.03325606510043144,
				0.13940368592739105
			],
			"min":[
				-0.7195755839347839,
				-0.20790541172027588,
				-0.27288833260536194
			],
			"type":"VEC3"
		},
		{
			"bufferView":5,
			"componentType":5126,
			"count":3390,
			"type":"VEC3"
		},
		{
			"bufferView":6,
			"componentType":5126,
			"count":3390,
			"type":"VEC2"
		},
		{
			"bufferView":7,
			"componentType":5123,
			"count":3390,
			"type":"SCALAR"
		}
	],
	"bufferViews":[
		{
			"buffer":0,
			"byteLength":97896,
			"byteOffset":0,
			"target":34962
		},
		{
			"buffer":0,
			"byteLength":97896,
			"byteOffset":97896,
			"target":34962
		},
		{
			"buffer":0,
			"byteLength":65264,
			"byteOffset":195792,
			"target":34962
		},
		{
			"buffer":0,
			"byteLength":16320,
			"byteOffset":261056,
			"target":34963
		},
		{
			"buffer":0,
			"byteLength":40680,
			"byteOffset":277376,
			"target":34962
		},
		{
			"buffer":0,
			"byteLength":40680,
			"byteOffset":318056,
			"target":34962
		},
		{
			"buffer":0,
			"byteLength":27120,
			"byteOffset":358736,
			"target":34962
		},
		{
			"buffer":0,
			"byteLength":6780,
			"byteOffset":385856,
			"target":34963
		}
	],
	"samplers":[
		{
			"magFilter":9729,
			"minFilter":9987
		}
	],
	"buffers":[
		{
			"byteLength":392636,
			"uri":"papaya_top.bin"
		}
	]
}
