{
	"asset":{
		"generator":"Khronos glTF Blender I/O v4.2.57",
		"version":"2.0"
	},
	"extensionsUsed":[
		"KHR_materials_emissive_strength"
	],
	"scene":0,
	"scenes":[
		{
			"name":"Scene",
			"nodes":[
				0
			]
		}
	],
	"nodes":[
		{
			"mesh":0,
			"name":"Object_4",
			"scale":[
				5.479585647583008,
				5.479587078094482,
				5.479587078094482
			]
		}
	],
	"materials":[
		{
			"doubleSided":true,
			"emissiveFactor":[
				1,
				0.4638710021972656,
				0
			],
			"extensions":{
				"KHR_materials_emissive_strength":{
					"emissiveStrength":5.399999618530273
				}
			},
			"name":"UFOLight",
			"pbrMetallicRoughness":{
				"baseColorFactor":[
					0.3109521269798279,
					0.07653968036174774,
					0,
					1
				],
				"metallicFactor":0,
				"roughnessFactor":0.5
			}
		},
		{
			"doubleSided":true,
			"name":"Material.001",
			"pbrMetallicRoughness":{
				"baseColorFactor":[
					0,
					0.00044199838885106146,
					0.011222372762858868,
					1
				],
				"metallicFactor":0,
				"roughnessFactor":0.5
			}
		},
		{
			"doubleSided":true,
			"name":"UFODot",
			"pbrMetallicRoughness":{
				"baseColorFactor":[
					0.006850350182503462,
					0.01092266384512186,
					0.01902862638235092,
					1
				],
				"metallicFactor":0,
				"roughnessFactor":0.5
			}
		}
	],
	"meshes":[
		{
			"name":"Object_0",
			"primitives":[
				{
					"attributes":{
						"POSITION":0,
						"NORMAL":1,
						"TEXCOORD_0":2
					},
					"indices":3,
					"material":0
				},
				{
					"attributes":{
						"POSITION":4,
						"NORMAL":5,
						"TEXCOORD_0":6
					},
					"indices":7,
					"material":1
				},
				{
					"attributes":{
						"POSITION":8,
						"NORMAL":9,
						"TEXCOORD_0":10
					},
					"indices":11,
					"material":2
				}
			]
		}
	],
	"accessors":[
		{
			"bufferView":0,
			"componentType":5126,
			"count":14144,
			"max":[
				1.8265016078948975,
				1,
				1.8265012502670288
			],
			"min":[
				-1.826500415802002,
				-0.607035756111145,
				-1.8265000581741333
			],
			"type":"VEC3"
		},
		{
			"bufferView":1,
			"componentType":5126,
			"count":14144,
			"type":"VEC3"
		},
		{
			"bufferView":2,
			"componentType":5126,
			"count":14144,
			"type":"VEC2"
		},
		{
			"bufferView":3,
			"componentType":5123,
			"count":48960,
			"type":"SCALAR"
		},
		{
			"bufferView":4,
			"componentType":5126,
			"count":2277,
			"max":[
				2.0327248573303223,
				0.48643070459365845,
				2.032724380493164
			],
			"min":[
				-2.0327234268188477,
				-0.48643070459365845,
				-2.0327231884002686
			],
			"type":"VEC3"
		},
		{
			"bufferView":5,
			"componentType":5126,
			"count":2277,
			"type":"VEC3"
		},
		{
			"bufferView":6,
			"componentType":5126,
			"count":2277,
			"type":"VEC2"
		},
		{
			"bufferView":7,
			"componentType":5123,
			"count":3504,
			"type":"SCALAR"
		},
		{
			"bufferView":8,
			"componentType":5126,
			"count":15270,
			"max":[
				1.6350762844085693,
				0.3740922510623932,
				1.6169906854629517
			],
			"min":[
				-1.5983483791351318,
				0.16980408132076263,
				-1.6167073249816895
			],
			"type":"VEC3"
		},
		{
			"bufferView":9,
			"componentType":5126,
			"count":15270,
			"type":"VEC3"
		},
		{
			"bufferView":10,
			"componentType":5126,
			"count":15270,
			"type":"VEC2"
		},
		{
			"bufferView":11,
			"componentType":5123,
			"count":17280,
			"type":"SCALAR"
		}
	],
	"bufferViews":[
		{
			"buffer":0,
			"byteLength":169728,
			"byteOffset":0,
			"target":34962
		},
		{
			"buffer":0,
			"byteLength":169728,
			"byteOffset":169728,
			"target":34962
		},
		{
			"buffer":0,
			"byteLength":113152,
			"byteOffset":339456,
			"target":34962
		},
		{
			"buffer":0,
			"byteLength":97920,
			"byteOffset":452608,
			"target":34963
		},
		{
			"buffer":0,
			"byteLength":27324,
			"byteOffset":550528,
			"target":34962
		},
		{
			"buffer":0,
			"byteLength":27324,
			"byteOffset":577852,
			"target":34962
		},
		{
			"buffer":0,
			"byteLength":18216,
			"byteOffset":605176,
			"target":34962
		},
		{
			"buffer":0,
			"byteLength":7008,
			"byteOffset":623392,
			"target":34963
		},
		{
			"buffer":0,
			"byteLength":183240,
			"byteOffset":630400,
			"target":34962
		},
		{
			"buffer":0,
			"byteLength":183240,
			"byteOffset":813640,
			"target":34962
		},
		{
			"buffer":0,
			"byteLength":122160,
			"byteOffset":996880,
			"target":34962
		},
		{
			"buffer":0,
			"byteLength":34560,
			"byteOffset":1119040,
			"target":34963
		}
	],
	"buffers":[
		{
			"byteLength":1153600,
			"uri":"spaceShip.bin"
		}
	]
}
