{
	"asset":{
		"generator":"Khronos glTF Blender I/O v4.2.57",
		"version":"2.0"
	},
	"scene":0,
	"scenes":[
		{
			"name":"Scene",
			"nodes":[
				0
			]
		}
	],
	"nodes":[
		{
			"mesh":0,
			"name":"mesh",
			"rotation":[
				0.7071068286895752,
				0,
				0,
				0.7071068286895752
			],
			"scale":[
				38.2706184387207,
				38.27061462402344,
				38.27061462402344
			],
			"translation":[
				0.012865348719060421,
				-0.10748148709535599,
				-0.04046795144677162
			]
		}
	],
	"materials":[
		{
			"doubleSided":true,
			"name":"main",
			"pbrMetallicRoughness":{
				"baseColorTexture":{
					"index":0
				},
				"metallicFactor":0
			}
		}
	],
	"meshes":[
		{
			"name":"mesh",
			"primitives":[
				{
					"attributes":{
						"POSITION":0,
						"NORMAL":1,
						"TEXCOORD_0":2
					},
					"indices":3,
					"material":0
				}
			]
		}
	],
	"textures":[
		{
			"sampler":0,
			"source":0
		}
	],
	"images":[
		{
			"mimeType":"image/jpeg",
			"name":"texgen_0",
			"uri":"texgen_0.jpg"
		}
	],
	"accessors":[
		{
			"bufferView":0,
			"componentType":5126,
			"count":3327,
			"max":[
				0.021587539464235306,
				0.052665241062641144,
				-0.002878720173612237
			],
			"min":[
				-0.061297040432691574,
				-0.04323109611868858,
				-0.04159514233469963
			],
			"type":"VEC3"
		},
		{
			"bufferView":1,
			"componentType":5126,
			"count":3327,
			"type":"VEC3"
		},
		{
			"bufferView":2,
			"componentType":5126,
			"count":3327,
			"type":"VEC2"
		},
		{
			"bufferView":3,
			"componentType":5123,
			"count":9951,
			"type":"SCALAR"
		}
	],
	"bufferViews":[
		{
			"buffer":0,
			"byteLength":39924,
			"byteOffset":0,
			"target":34962
		},
		{
			"buffer":0,
			"byteLength":39924,
			"byteOffset":39924,
			"target":34962
		},
		{
			"buffer":0,
			"byteLength":26616,
			"byteOffset":79848,
			"target":34962
		},
		{
			"buffer":0,
			"byteLength":19902,
			"byteOffset":106464,
			"target":34963
		}
	],
	"samplers":[
		{
			"magFilter":9729,
			"minFilter":9987,
			"wrapS":33071,
			"wrapT":33071
		}
	],
	"buffers":[
		{
			"byteLength":126368,
			"uri":"mandarineBOTTOM.bin"
		}
	]
}
