{
	"asset":{
		"generator":"Khronos glTF Blender I/O v4.2.70",
		"version":"2.0"
	},
	"scene":0,
	"scenes":[
		{
			"name":"Scene",
			"nodes":[
				0
			]
		}
	],
	"nodes":[
		{
			"mesh":0,
			"name":"mesh.001"
		}
	],
	"materials":[
		{
			"doubleSided":true,
			"name":"main.002",
			"pbrMetallicRoughness":{
				"baseColorTexture":{
					"index":0
				},
				"metallicFactor":0
			}
		},
		{
			"doubleSided":true,
			"name":"main.003",
			"pbrMetallicRoughness":{
				"baseColorTexture":{
					"index":1
				},
				"metallicFactor":0
			}
		}
	],
	"meshes":[
		{
			"name":"mesh.001",
			"primitives":[
				{
					"attributes":{
						"POSITION":0,
						"NORMAL":1,
						"TEXCOORD_0":2
					},
					"indices":3,
					"material":0
				},
				{
					"attributes":{
						"POSITION":4,
						"NORMAL":5,
						"TEXCOORD_0":6
					},
					"indices":7,
					"material":1
				}
			]
		}
	],
	"textures":[
		{
			"sampler":0,
			"source":0
		},
		{
			"sampler":0,
			"source":1
		}
	],
	"images":[
		{
			"mimeType":"image/jpeg",
			"name":"orange1TEXjpeg",
			"uri":"orange1TEXjpeg.jpg"
		},
		{
			"mimeType":"image/jpeg",
			"name":"texgen_0",
			"uri":"texgen_0.jpg"
		}
	],
	"accessors":[
		{
			"bufferView":0,
			"componentType":5126,
			"count":11974,
			"max":[
				0.06623683869838715,
				0.11649022996425629,
				1.1048234701156616
			],
			"min":[
				-2.4524455070495605,
				-0.3994155824184418,
				-1.1443692445755005
			],
			"type":"VEC3"
		},
		{
			"bufferView":1,
			"componentType":5126,
			"count":11974,
			"type":"VEC3"
		},
		{
			"bufferView":2,
			"componentType":5126,
			"count":11974,
			"type":"VEC2"
		},
		{
			"bufferView":3,
			"componentType":5123,
			"count":68247,
			"type":"SCALAR"
		},
		{
			"bufferView":4,
			"componentType":5126,
			"count":8784,
			"max":[
				0.0130689088255167,
				0.8690198063850403,
				1.1005632877349854
			],
			"min":[
				-2.500455141067505,
				-0.3839804530143738,
				-1.1249358654022217
			],
			"type":"VEC3"
		},
		{
			"bufferView":5,
			"componentType":5126,
			"count":8784,
			"type":"VEC3"
		},
		{
			"bufferView":6,
			"componentType":5126,
			"count":8784,
			"type":"VEC2"
		},
		{
			"bufferView":7,
			"componentType":5123,
			"count":48651,
			"type":"SCALAR"
		}
	],
	"bufferViews":[
		{
			"buffer":0,
			"byteLength":143688,
			"byteOffset":0,
			"target":34962
		},
		{
			"buffer":0,
			"byteLength":143688,
			"byteOffset":143688,
			"target":34962
		},
		{
			"buffer":0,
			"byteLength":95792,
			"byteOffset":287376,
			"target":34962
		},
		{
			"buffer":0,
			"byteLength":136494,
			"byteOffset":383168,
			"target":34963
		},
		{
			"buffer":0,
			"byteLength":105408,
			"byteOffset":519664,
			"target":34962
		},
		{
			"buffer":0,
			"byteLength":105408,
			"byteOffset":625072,
			"target":34962
		},
		{
			"buffer":0,
			"byteLength":70272,
			"byteOffset":730480,
			"target":34962
		},
		{
			"buffer":0,
			"byteLength":97302,
			"byteOffset":800752,
			"target":34963
		}
	],
	"samplers":[
		{
			"magFilter":9729,
			"minFilter":9987,
			"wrapS":33071,
			"wrapT":33071
		}
	],
	"buffers":[
		{
			"byteLength":898056,
			"uri":"orange_TOP.bin"
		}
	]
}
