{
	"asset":{
		"generator":"Khronos glTF Blender I/O v4.2.57",
		"version":"2.0"
	},
	"scene":0,
	"scenes":[
		{
			"name":"Scene",
			"nodes":[
				0
			]
		}
	],
	"nodes":[
		{
			"mesh":0,
			"name":"arancia2"
		}
	],
	"materials":[
		{
			"doubleSided":true,
			"name":"main.001",
			"pbrMetallicRoughness":{
				"baseColorTexture":{
					"index":0
				},
				"metallicFactor":0,
				"roughnessFactor":0.5527864098548889
			}
		},
		{
			"doubleSided":true,
			"name":"main.002",
			"pbrMetallicRoughness":{
				"baseColorTexture":{
					"index":1
				},
				"metallicFactor":0,
				"roughnessFactor":0.5527864098548889
			}
		}
	],
	"meshes":[
		{
			"name":"Mesh.001",
			"primitives":[
				{
					"attributes":{
						"POSITION":0,
						"NORMAL":1,
						"TEXCOORD_0":2
					},
					"indices":3,
					"material":0
				},
				{
					"attributes":{
						"POSITION":4,
						"NORMAL":5,
						"TEXCOORD_0":6
					},
					"indices":7,
					"material":1
				}
			]
		}
	],
	"textures":[
		{
			"sampler":0,
			"source":0
		},
		{
			"sampler":0,
			"source":1
		}
	],
	"images":[
		{
			"mimeType":"image/jpeg",
			"name":"texture",
			"uri":"texture.jpg"
		},
		{
			"mimeType":"image/jpeg",
			"name":"texture",
			"uri":"texture-1.jpg"
		}
	],
	"accessors":[
		{
			"bufferView":0,
			"componentType":5126,
			"count":2424,
			"max":[
				0.0032093538902699947,
				0.02961457520723343,
				0.025700891390442848
			],
			"min":[
				-0.08011116832494736,
				-0.008101115003228188,
				-0.059196051210165024
			],
			"type":"VEC3"
		},
		{
			"bufferView":1,
			"componentType":5126,
			"count":2424,
			"type":"VEC3"
		},
		{
			"bufferView":2,
			"componentType":5126,
			"count":2424,
			"type":"VEC2"
		},
		{
			"bufferView":3,
			"componentType":5123,
			"count":8967,
			"type":"SCALAR"
		},
		{
			"bufferView":4,
			"componentType":5126,
			"count":3364,
			"max":[
				0.0026187975890934467,
				0.004028685856610537,
				0.023907549679279327
			],
			"min":[
				-0.07933830469846725,
				-0.01597607508301735,
				-0.05849588289856911
			],
			"type":"VEC3"
		},
		{
			"bufferView":5,
			"componentType":5126,
			"count":3364,
			"type":"VEC3"
		},
		{
			"bufferView":6,
			"componentType":5126,
			"count":3364,
			"type":"VEC2"
		},
		{
			"bufferView":7,
			"componentType":5123,
			"count":12246,
			"type":"SCALAR"
		}
	],
	"bufferViews":[
		{
			"buffer":0,
			"byteLength":29088,
			"byteOffset":0,
			"target":34962
		},
		{
			"buffer":0,
			"byteLength":29088,
			"byteOffset":29088,
			"target":34962
		},
		{
			"buffer":0,
			"byteLength":19392,
			"byteOffset":58176,
			"target":34962
		},
		{
			"buffer":0,
			"byteLength":17934,
			"byteOffset":77568,
			"target":34963
		},
		{
			"buffer":0,
			"byteLength":40368,
			"byteOffset":95504,
			"target":34962
		},
		{
			"buffer":0,
			"byteLength":40368,
			"byteOffset":135872,
			"target":34962
		},
		{
			"buffer":0,
			"byteLength":26912,
			"byteOffset":176240,
			"target":34962
		},
		{
			"buffer":0,
			"byteLength":24492,
			"byteOffset":203152,
			"target":34963
		}
	],
	"samplers":[
		{
			"magFilter":9729,
			"minFilter":9987
		}
	],
	"buffers":[
		{
			"byteLength":227644,
			"uri":"orange_TOP.bin"
		}
	]
}
