{
	"asset":{
		"generator":"Khronos glTF Blender I/O v4.2.70",
		"version":"2.0"
	},
	"extensionsUsed":[
		"KHR_materials_specular"
	],
	"scene":0,
	"scenes":[
		{
			"name":"Scene",
			"nodes":[
				2,
				3
			]
		}
	],
	"nodes":[
		{
			"mesh":0,
			"name":"ant.003",
			"rotation":[
				-0.7071068286895752,
				0,
				0,
				0.7071068286895752
			],
			"scale":[
				0.0014924354618415236,
				0.0014924363931640983,
				0.0014924363931640983
			]
		},
		{
			"name":"ant.002",
			"rotation":[
				-0.5194031596183777,
				-0.5189118385314941,
				-0.4897945523262024,
				0.47016191482543945
			],
			"scale":[
				0.0014924362767487764,
				0.0014924355782568455,
				0.00149243650957942
			],
			"translation":[
				5.6068547564791515e-06,
				-0.6065725684165955,
				-0.27613332867622375
			]
		},
		{
			"children":[
				0,
				1
			],
			"name":"ant",
			"rotation":[
				0.7071065902709961,
				0,
				0,
				0.7071069478988647
			]
		},
		{
			"mesh":1,
			"name":"Cylinder.027",
			"translation":[
				0,
				1.4011303186416626,
				0.6199245452880859
			]
		}
	],
	"animations":[
		{
			"channels":[
				{
					"sampler":0,
					"target":{
						"node":1,
						"path":"translation"
					}
				},
				{
					"sampler":1,
					"target":{
						"node":1,
						"path":"rotation"
					}
				},
				{
					"sampler":2,
					"target":{
						"node":1,
						"path":"scale"
					}
				}
			],
			"name":"ant.002|Take 001|BaseLayer",
			"samplers":[
				{
					"input":14,
					"interpolation":"LINEAR",
					"output":15
				},
				{
					"input":14,
					"interpolation":"LINEAR",
					"output":16
				},
				{
					"input":17,
					"interpolation":"LINEAR",
					"output":18
				}
			]
		},
		{
			"channels":[
				{
					"sampler":0,
					"target":{
						"node":3,
						"path":"translation"
					}
				},
				{
					"sampler":1,
					"target":{
						"node":3,
						"path":"rotation"
					}
				}
			],
			"name":"Cylinder.027Action",
			"samplers":[
				{
					"input":19,
					"interpolation":"LINEAR",
					"output":20
				},
				{
					"input":19,
					"interpolation":"LINEAR",
					"output":21
				}
			]
		}
	],
	"materials":[
		{
			"doubleSided":true,
			"extensions":{
				"KHR_materials_specular":{
					"specularFactor":0.8000001907348633
				}
			},
			"name":"MI_Ari_CrazyBody",
			"pbrMetallicRoughness":{
				"metallicFactor":0,
				"roughnessFactor":0.5527864098548889
			}
		},
		{
			"doubleSided":true,
			"name":"Material.006",
			"pbrMetallicRoughness":{
				"baseColorFactor":[
					0,
					0,
					0,
					1
				],
				"metallicFactor":0,
				"roughnessFactor":0.5
			}
		},
		{
			"doubleSided":true,
			"name":"Material.005",
			"pbrMetallicRoughness":{
				"baseColorFactor":[
					0.07668785750865936,
					0.0928572416305542,
					0.0928572416305542,
					1
				],
				"metallicFactor":0,
				"roughnessFactor":0.5
			}
		}
	],
	"meshes":[
		{
			"name":"Mesh",
			"primitives":[
				{
					"attributes":{
						"POSITION":0,
						"NORMAL":1,
						"TEXCOORD_0":2,
						"COLOR_0":3,
						"COLOR_1":4
					},
					"indices":5,
					"material":0
				}
			]
		},
		{
			"name":"Cylinder.027",
			"primitives":[
				{
					"attributes":{
						"POSITION":6,
						"NORMAL":7,
						"TEXCOORD_0":8
					},
					"indices":9,
					"material":1
				},
				{
					"attributes":{
						"POSITION":10,
						"NORMAL":11,
						"TEXCOORD_0":12
					},
					"indices":13,
					"material":2
				}
			]
		}
	],
	"accessors":[
		{
			"bufferView":0,
			"componentType":5126,
			"count":6613,
			"max":[
				523.5250244140625,
				526.4076538085938,
				879.4214477539062
			],
			"min":[
				-523.5250244140625,
				-2.374423027038574,
				-638.2708129882812
			],
			"type":"VEC3"
		},
		{
			"bufferView":1,
			"componentType":5126,
			"count":6613,
			"type":"VEC3"
		},
		{
			"bufferView":2,
			"componentType":5126,
			"count":6613,
			"type":"VEC2"
		},
		{
			"bufferView":3,
			"componentType":5121,
			"count":6613,
			"normalized":true,
			"type":"VEC4"
		},
		{
			"bufferView":4,
			"componentType":5126,
			"count":6613,
			"type":"VEC3"
		},
		{
			"bufferView":5,
			"componentType":5123,
			"count":29304,
			"type":"SCALAR"
		},
		{
			"bufferView":6,
			"componentType":5126,
			"count":322,
			"max":[
				0.7385709285736084,
				0.2695099115371704,
				0.2717607021331787
			],
			"min":[
				0.6083829402923584,
				-0.26866596937179565,
				-0.26896536350250244
			],
			"type":"VEC3"
		},
		{
			"bufferView":7,
			"componentType":5126,
			"count":322,
			"type":"VEC3"
		},
		{
			"bufferView":8,
			"componentType":5126,
			"count":322,
			"type":"VEC2"
		},
		{
			"bufferView":9,
			"componentType":5123,
			"count":1344,
			"type":"SCALAR"
		},
		{
			"bufferView":10,
			"componentType":5126,
			"count":98,
			"max":[
				0.874066948890686,
				0.017415447160601616,
				0.018021101132035255
			],
			"min":[
				0,
				-0.017415495589375496,
				-0.018021149560809135
			],
			"type":"VEC3"
		},
		{
			"bufferView":11,
			"componentType":5126,
			"count":98,
			"type":"VEC3"
		},
		{
			"bufferView":12,
			"componentType":5126,
			"count":98,
			"type":"VEC2"
		},
		{
			"bufferView":13,
			"componentType":5123,
			"count":282,
			"type":"SCALAR"
		},
		{
			"bufferView":14,
			"componentType":5126,
			"count":2275,
			"max":[
				94.79166666666667
			],
			"min":[
				0.041666666666666664
			],
			"type":"SCALAR"
		},
		{
			"bufferView":15,
			"componentType":5126,
			"count":2275,
			"type":"VEC3"
		},
		{
			"bufferView":16,
			"componentType":5126,
			"count":2275,
			"type":"VEC4"
		},
		{
			"bufferView":17,
			"componentType":5126,
			"count":2,
			"max":[
				94.79166666666667
			],
			"min":[
				0.041666666666666664
			],
			"type":"SCALAR"
		},
		{
			"bufferView":18,
			"componentType":5126,
			"count":2,
			"type":"VEC3"
		},
		{
			"bufferView":19,
			"componentType":5126,
			"count":245,
			"max":[
				10.208333333333334
			],
			"min":[
				0.041666666666666664
			],
			"type":"SCALAR"
		},
		{
			"bufferView":20,
			"componentType":5126,
			"count":245,
			"type":"VEC3"
		},
		{
			"bufferView":21,
			"componentType":5126,
			"count":245,
			"type":"VEC4"
		}
	],
	"bufferViews":[
		{
			"buffer":0,
			"byteLength":79356,
			"byteOffset":0,
			"target":34962
		},
		{
			"buffer":0,
			"byteLength":79356,
			"byteOffset":79356,
			"target":34962
		},
		{
			"buffer":0,
			"byteLength":52904,
			"byteOffset":158712,
			"target":34962
		},
		{
			"buffer":0,
			"byteLength":26452,
			"byteOffset":211616,
			"target":34962
		},
		{
			"buffer":0,
			"byteLength":79356,
			"byteOffset":238068,
			"target":34962
		},
		{
			"buffer":0,
			"byteLength":58608,
			"byteOffset":317424,
			"target":34963
		},
		{
			"buffer":0,
			"byteLength":3864,
			"byteOffset":376032,
			"target":34962
		},
		{
			"buffer":0,
			"byteLength":3864,
			"byteOffset":379896,
			"target":34962
		},
		{
			"buffer":0,
			"byteLength":2576,
			"byteOffset":383760,
			"target":34962
		},
		{
			"buffer":0,
			"byteLength":2688,
			"byteOffset":386336,
			"target":34963
		},
		{
			"buffer":0,
			"byteLength":1176,
			"byteOffset":389024,
			"target":34962
		},
		{
			"buffer":0,
			"byteLength":1176,
			"byteOffset":390200,
			"target":34962
		},
		{
			"buffer":0,
			"byteLength":784,
			"byteOffset":391376,
			"target":34962
		},
		{
			"buffer":0,
			"byteLength":564,
			"byteOffset":392160,
			"target":34963
		},
		{
			"buffer":0,
			"byteLength":9100,
			"byteOffset":392724
		},
		{
			"buffer":0,
			"byteLength":27300,
			"byteOffset":401824
		},
		{
			"buffer":0,
			"byteLength":36400,
			"byteOffset":429124
		},
		{
			"buffer":0,
			"byteLength":8,
			"byteOffset":465524
		},
		{
			"buffer":0,
			"byteLength":24,
			"byteOffset":465532
		},
		{
			"buffer":0,
			"byteLength":980,
			"byteOffset":465556
		},
		{
			"buffer":0,
			"byteLength":2940,
			"byteOffset":466536
		},
		{
			"buffer":0,
			"byteLength":3920,
			"byteOffset":469476
		}
	],
	"buffers":[
		{
			"byteLength":473396,
			"uri":"20241203_Ant.bin"
		}
	]
}
